<?xml version="1.0" standalone="no"?>
<!DOCTYPE svg PUBLIC "-//W3C//DTD SVG 20010904//EN"
 "http://www.w3.org/TR/2001/REC-SVG-20010904/DTD/svg10.dtd">
<svg version="1.0" xmlns="http://www.w3.org/2000/svg"
 width="700.000000pt" height="700.000000pt" viewBox="0 0 700.000000 700.000000"
 preserveAspectRatio="xMidYMid meet">
<metadata>
Created by potrace 1.14, written by Peter Selinger 2001-2017
</metadata>
<g transform="translate(0.000000,700.000000) scale(0.100000,-0.100000)"
fill="#000000" stroke="none">
<path d="M3280 6994 c-19 -2 -84 -9 -145 -14 -578 -56 -1180 -283 -1660 -625
-237 -169 -531 -446 -709 -670 -416 -521 -673 -1147 -748 -1820 -17 -155 -17
-575 0 -730 52 -469 198 -931 418 -1327 290 -523 731 -983 1239 -1294 439
-269 920 -432 1460 -496 145 -17 576 -17 730 0 822 91 1556 447 2131 1034 203
206 348 390 487 618 274 449 433 916 499 1465 16 136 16 592 0 730 -86 725
-352 1347 -803 1885 -122 145 -351 370 -494 484 -510 407 -1117 661 -1775 742
-117 15 -553 27 -630 18z m2096 -2981 c-2 -3 -110 77 -240 176 -130 100 -238
181 -241 181 -3 0 -5 -362 -5 -805 l0 -805 -800 0 -800 0 0 -330 0 -330 -140
0 -140 0 -2 668 -3 667 -764 3 c-556 1 -768 -1 -777 -9 -20 -16 -20 -351 -1
-367 9 -8 186 -12 568 -14 l554 -3 53 -29 c65 -36 107 -83 139 -153 24 -52 24
-56 21 -300 l-3 -248 -30 -54 c-32 -58 -89 -110 -151 -138 -36 -17 -94 -18
-742 -21 l-702 -3 0 141 0 140 663 0 c364 0 668 4 675 8 9 7 12 52 10 193 l-3
184 -560 5 -560 5 -45 24 c-61 32 -116 86 -148 146 l-27 50 0 250 c0 243 1
251 24 298 13 26 47 69 76 95 95 87 30 82 1086 82 l929 0 0 -335 0 -335 550 0
550 0 0 838 1 837 492 375 492 376 3 -730 c1 -401 0 -731 -2 -733z m105 -295
l409 -313 0 -652 0 -653 -295 0 -295 0 0 330 0 330 -120 0 -120 0 0 635 c0
349 3 635 6 635 3 0 190 -141 415 -312z m-361 -1373 l0 -245 -372 2 -373 3 -3
243 -2 242 375 0 375 0 0 -245z"/>
</g>
</svg>
