<svg width="62" height="96" viewBox="0 0 62 96" fill="none" xmlns="http://www.w3.org/2000/svg">
<path d="M44.4611 95.3296C44.5168 95.602 44.6954 95.7178 44.9834 95.7629L49.3281 95.6509C49.6295 95.6101 49.7524 95.4535 49.7926 95.1961C49.7369 94.9236 49.5583 94.8078 49.2703 94.7627L45.419 94.8639L45.0782 91.3821C45.0224 91.1097 44.8439 90.9938 44.5559 90.9488C44.2545 90.9896 44.1316 91.1462 44.0914 91.4037L44.4611 95.3296ZM0.415508 0.884013C7.2583 1.77796 19.1643 4.25468 30.574 9.90651C41.9836 15.5583 52.7874 24.4561 57.5353 38.1213L58.4529 37.9131C53.7453 23.9905 42.6669 14.9619 31.0787 9.19421C19.4905 3.42655 7.39246 0.919823 0.549666 0.0258739L0.415508 0.884013ZM57.6313 38.1363C67.1135 65.5526 51.3727 88.2343 44.6107 95.0013L45.3117 95.5504C52.1965 88.6269 68.1695 65.7177 58.5624 37.8423L57.6313 38.1363Z" fill="#E9D3AF"/>
</svg>
