<svg width="47" height="35" viewBox="0 0 47 35" fill="none" xmlns="http://www.w3.org/2000/svg">
<path d="M45.6733 10.2083H40.2903L38.7942 6.41667C37.2567 2.51836 33.5874 0 29.4452 0H18.0264C13.8851 0 10.2149 2.51836 8.6765 6.41667L7.18037 10.2083H1.79826C1.09605 10.2083 0.580858 10.8773 0.75169 11.5673L1.29116 13.7548C1.41074 14.2415 1.84232 14.5833 2.33773 14.5833H4.14226C2.93474 15.6525 2.15701 17.2065 2.15701 18.9583V23.3333C2.15701 24.8026 2.71086 26.1288 3.59559 27.1551V32.0833C3.59559 33.6939 4.88403 35 6.47276 35H9.34993C10.9387 35 12.2271 33.6939 12.2271 32.0833V29.1667H35.2445V32.0833C35.2445 33.6939 36.5329 35 38.1216 35H40.9988C42.5875 35 43.876 33.6939 43.876 32.0833V27.1551C44.7607 26.1297 45.3146 24.8035 45.3146 23.3333V18.9583C45.3146 17.2065 44.5368 15.6525 43.3302 14.5833H45.1347C45.6302 14.5833 46.0617 14.2415 46.1813 13.7548L46.7208 11.5673C46.8907 10.8773 46.3755 10.2083 45.6733 10.2083ZM14.019 8.5832C14.6745 6.92253 16.2614 5.83333 18.0264 5.83333H29.4452C31.2101 5.83333 32.7971 6.92253 33.4525 8.5832L35.2445 13.125H12.2271L14.019 8.5832ZM9.34993 23.3151C7.62363 23.3151 6.47276 22.1521 6.47276 20.4076C6.47276 18.663 7.62363 17.5 9.34993 17.5C11.0762 17.5 13.6657 20.1168 13.6657 21.8613C13.6657 23.6059 11.0762 23.3151 9.34993 23.3151ZM38.1216 23.3151C36.3953 23.3151 33.8059 23.6059 33.8059 21.8613C33.8059 20.1168 36.3953 17.5 38.1216 17.5C39.8479 17.5 40.9988 18.663 40.9988 20.4076C40.9988 22.1521 39.8479 23.3151 38.1216 23.3151Z" fill="#E9D3AF"/>
</svg>
