<svg width="35" height="35" viewBox="0 0 35 35" fill="none" xmlns="http://www.w3.org/2000/svg">
<path d="M34.994 17.503C34.994 20.9636 33.9678 24.3465 32.0452 27.2238C30.1226 30.1012 27.3899 32.3438 24.1928 33.6681C20.9956 34.9924 17.4776 35.3389 14.0835 34.6638C10.6894 33.9887 7.57175 32.3222 5.12476 29.8752C2.67776 27.4283 1.01133 24.3106 0.336207 20.9165C-0.338917 17.5224 0.00758123 14.0044 1.33189 10.8072C2.65619 7.61005 4.89882 4.8774 7.77619 2.95481C10.6536 1.03221 14.0364 0.00603501 17.497 0.00603501C20.81 -0.00502662 24.0568 0.933359 26.8531 2.71011L29.0975 0.465728C29.3203 0.242956 29.6043 0.0913839 29.9134 0.0302381C30.2225 -0.0309077 30.5428 0.00112777 30.8337 0.122281C31.1245 0.243434 31.3729 0.448246 31.5472 0.710739C31.7215 0.973232 31.8139 1.28158 31.8127 1.59667V7.95921C31.8127 8.38107 31.6451 8.78565 31.3468 9.08396C31.0485 9.38226 30.6439 9.54984 30.2221 9.54984H23.8595C23.545 9.54978 23.2375 9.45645 22.976 9.28166C22.7145 9.10688 22.5107 8.85848 22.3903 8.56787C22.2699 8.27726 22.2384 7.95749 22.2998 7.64898C22.3611 7.34048 22.5126 7.05708 22.7349 6.83463L24.5276 5.04198C22.3855 3.82219 19.962 3.18288 17.497 3.1873C14.6656 3.1873 11.8978 4.02691 9.5436 5.59994C7.1894 7.17297 5.35452 9.40878 4.271 12.0246C3.18747 14.6405 2.90397 17.5189 3.45635 20.2959C4.00872 23.0728 5.37216 25.6237 7.37425 27.6257C9.37634 29.6278 11.9272 30.9913 14.7041 31.5437C17.4811 32.096 20.3595 31.8125 22.9754 30.729C25.5912 29.6455 27.827 27.8106 29.4001 25.4564C30.9731 23.1022 31.8127 20.3344 31.8127 17.503C31.8127 17.0812 31.9803 16.6766 32.2786 16.3783C32.5769 16.08 32.9815 15.9124 33.4033 15.9124C33.8252 15.9124 34.2298 16.08 34.5281 16.3783C34.8264 16.6766 34.994 17.0812 34.994 17.503Z" fill="#E9D3AF"/>
</svg>
