<svg width="25" height="24" viewBox="0 0 25 24" fill="none" xmlns="http://www.w3.org/2000/svg">
<path d="M24.0385 15.3848H22.1154C21.5385 15.3848 21.1538 15.7694 21.1538 16.3463V18.7502C21.1538 19.0386 20.9615 19.2309 20.6731 19.2309H4.32692C4.03846 19.2309 3.84615 19.0386 3.84615 18.7502V16.3463C3.84615 15.7694 3.46154 15.3848 2.88462 15.3848H0.961538C0.384615 15.3848 0 15.7694 0 16.3463V22.1155C0 22.6925 0.384615 23.0771 0.961538 23.0771H24.0385C24.6154 23.0771 25 22.6925 25 22.1155V16.3463C25 15.7694 24.6154 15.3848 24.0385 15.3848Z" fill="white"/>
<path d="M11.8267 15.0962C12.019 15.2885 12.3075 15.3846 12.4998 15.3846C12.6921 15.3846 12.9806 15.2885 13.1729 15.0962L18.9421 9.32692C19.1344 9.13462 19.2306 8.94231 19.2306 8.65385C19.2306 8.36539 19.1344 8.17308 18.9421 7.98077L17.596 6.63462C17.4037 6.44231 17.2114 6.34615 16.9229 6.34615C16.6344 6.34615 16.4421 6.44231 16.2498 6.63462L15.2883 7.59615C14.9998 7.88462 14.4229 7.69231 14.4229 7.21154V0.961538C14.4229 0.384615 14.0383 0 13.4614 0H11.5383C10.9614 0 10.5767 0.384615 10.5767 0.961538V7.30769C10.5767 7.69231 10.096 7.98077 9.71135 7.69231L8.74981 6.73077C8.5575 6.53846 8.3652 6.44231 8.07673 6.44231C7.78827 6.44231 7.59597 6.53846 7.40366 6.73077L6.0575 8.07692C5.8652 8.26923 5.76904 8.46154 5.76904 8.75C5.76904 9.03846 5.8652 9.23077 6.0575 9.42308L11.8267 15.0962Z" fill="white"/>
</svg>
