<svg width="38" height="35" viewBox="0 0 38 35" fill="none" xmlns="http://www.w3.org/2000/svg">
<path d="M7.78025 6.125C9.44872 6.125 10.8013 4.75387 10.8013 3.0625C10.8013 1.37113 9.44872 0 7.78025 0C6.11178 0 4.75922 1.37113 4.75922 3.0625C4.75922 4.75387 6.11178 6.125 7.78025 6.125Z" fill="#02023D"/>
<path d="M20.7275 6.125C22.396 6.125 23.7485 4.75387 23.7485 3.0625C23.7485 1.37113 22.396 0 20.7275 0C19.059 0 17.7065 1.37113 17.7065 3.0625C17.7065 4.75387 19.059 6.125 20.7275 6.125Z" fill="#02023D"/>
<path d="M32.3801 23.1875C33.5718 23.1875 34.5379 22.2081 34.5379 21C34.5379 19.7919 33.5718 18.8125 32.3801 18.8125C31.1883 18.8125 30.2222 19.7919 30.2222 21C30.2222 22.2081 31.1883 23.1875 32.3801 23.1875Z" fill="#02023D"/>
<path d="M37.0411 28.9625L35.5306 25.2875C35.0127 24.5438 34.1927 23.975 33.2864 23.7125C33.0274 23.6688 32.6822 23.625 32.3801 23.625H30.2222L28.4096 20.5188C28.4527 20.3 28.4959 20.0813 28.4527 19.8625L26.4243 9.5375C25.6043 8.61875 24.5685 7.91875 23.3601 7.48125C22.5401 7.175 21.6338 7 20.6844 7C19.7349 7 18.8717 7.175 18.0086 7.48125C16.8433 7.91875 15.8076 8.61875 14.9444 9.5375L14.2539 13.4313L13.477 9.5375C12.6571 8.61875 11.6213 7.91875 10.4129 7.48125C9.59287 7.175 8.68656 7 7.73709 7C6.78763 7 5.92448 7.175 5.06133 7.48125C3.89607 7.91875 2.86029 8.61875 1.99714 9.5375L0.0550499 19.8625C-0.0744228 20.5625 0.357153 21.2625 1.09083 21.3938C1.13399 21.4375 1.2203 21.4375 1.30662 21.4375C1.91082 21.4375 2.47187 21 2.55819 20.3875L4.32765 11.5062V35H6.9171V21.4375H8.6434V35H11.2329V11.5062L13.0023 20.3875C13.0886 21 13.6497 21.4375 14.2539 21.4375C14.8581 21.4375 15.4191 21 15.5055 20.3875L17.2749 11.5062V16.275L15.6349 24.5437H17.2749V35H19.8644V24.5H21.5907V35H24.1801V24.5437H25.8201L24.1801 16.275V11.5062L25.9496 20.3875C26.0359 20.9125 26.4675 21.3063 26.9422 21.3938L30.2222 27.0375V35H31.9485V29.75H32.8116V35H34.5379V27.3875L35.4874 29.6625C35.6169 30.0125 35.9621 30.1875 36.2642 30.1875C36.3937 30.1875 36.48 30.1875 36.6095 30.1C37.0411 29.925 37.2569 29.4 37.0411 28.9625Z" fill="#02023D"/>
</svg>
