<svg width="58" height="35" viewBox="0 0 58 35" fill="none" xmlns="http://www.w3.org/2000/svg">
<path d="M45 30V35H15V30C15 30 15 20 30 20C45 20 45 30 45 30ZM37.5 7.5C37.5 6.01664 37.0601 4.56659 36.236 3.33323C35.4119 2.09986 34.2406 1.13856 32.8701 0.570907C31.4997 0.00324965 29.9917 -0.145275 28.5368 0.144114C27.082 0.433503 25.7456 1.14781 24.6967 2.1967C23.6478 3.2456 22.9335 4.58197 22.6441 6.03683C22.3547 7.49168 22.5032 8.99968 23.0709 10.3701C23.6386 11.7406 24.5999 12.9119 25.8332 13.736C27.0666 14.5601 28.5166 15 30 15C31.9891 15 33.8968 14.2098 35.3033 12.8033C36.7098 11.3968 37.5 9.48913 37.5 7.5ZM45.5 20.15C46.8666 21.4108 47.9683 22.9311 48.7409 24.6223C49.5136 26.3135 49.9416 28.1416 50 30V35H57.5V30C57.5 30 57.5 21.375 45.5 20.15ZM42.5 2.85376e-06C41.7447 0.000454887 40.994 0.118536 40.275 0.350002C41.7376 2.44743 42.5218 4.94296 42.5218 7.5C42.5218 10.057 41.7376 12.5526 40.275 14.65C40.994 14.8815 41.7447 14.9995 42.5 15C44.4891 15 46.3968 14.2098 47.8033 12.8033C49.2098 11.3968 50 9.48913 50 7.5C50 5.51088 49.2098 3.60322 47.8033 2.1967C46.3968 0.790179 44.4891 2.85376e-06 42.5 2.85376e-06ZM15.85 9.8L18.75 13.325L6.875 25.2L0 17.7L2.9 14.8L6.875 18.75L15.85 9.8Z" fill="#E9D3AF"/>
</svg>
