<svg width="39" height="35" viewBox="0 0 39 35" fill="none" xmlns="http://www.w3.org/2000/svg">
<path d="M38.1705 16.1901L20.7753 0.471557C19.937 -0.157186 18.6795 -0.157186 18.0508 0.471557L0.445965 16.1901C-0.392358 16.8189 0.0268035 18.0763 1.07471 18.0763H4.63758V32.747C4.63758 33.7949 5.68549 34.8428 6.73339 34.8428H31.8831C32.931 34.8428 33.9789 33.7949 33.9789 32.747V18.0763H37.5418C38.5897 18.0763 39.0088 16.8189 38.1705 16.1901ZM25.8052 22.268L26.0148 22.4775C26.8531 22.8967 27.0627 23.9446 26.6436 24.7829L26.0148 25.8308C25.5957 26.6692 24.5478 26.8787 23.7094 26.4596L23.4999 26.25C23.0807 26.0404 22.6615 26.0404 22.2424 26.25C21.8232 26.4596 21.6136 26.8787 21.6136 27.2979V27.7171C21.6136 28.765 20.7753 29.3937 19.937 29.3937H18.6795C17.6316 29.3937 17.0029 28.5554 17.0029 27.7171V27.2979C17.0029 26.8787 16.7933 26.4596 16.3741 26.25C15.9549 26.0404 15.5358 26.0404 15.1166 26.25L14.907 26.4596C14.0687 27.0883 13.0208 26.8787 12.6017 26.0404L11.9729 24.9925C11.5537 24.1542 11.7633 23.1063 12.6017 22.6871L12.8112 22.4775C13.2304 22.268 13.44 21.8488 13.44 21.4296C13.44 21.0105 13.2304 20.5913 12.8112 20.3817L12.6017 20.1722C11.7633 19.753 11.5537 18.7051 11.9729 17.8668L12.6017 16.8189C13.0208 15.9805 14.0687 15.771 14.907 16.1901L15.1166 16.3997C15.5358 16.6093 15.9549 16.6093 16.3741 16.3997C16.7933 16.1901 17.0029 15.771 17.0029 15.3518V14.9326C17.0029 13.8847 17.8412 13.256 18.6795 13.256H19.937C20.9849 13.256 21.6136 14.0943 21.6136 14.9326V15.3518C21.6136 15.771 21.8232 16.1901 22.2424 16.3997C22.6615 16.6093 23.0807 16.6093 23.4999 16.3997L23.7094 16.1901C24.5478 15.771 25.5957 15.9805 26.0148 16.8189L26.6436 17.8668C27.0627 18.7051 26.8531 19.753 26.0148 20.1722L25.8052 20.3817C25.3861 20.5913 25.1765 21.0105 25.1765 21.4296C25.1765 21.8488 25.3861 22.0584 25.8052 22.268Z" fill="#E9D3AF"/>
<path d="M19.3082 24.3639C20.9286 24.3639 22.2423 23.0502 22.2423 21.4297C22.2423 19.8093 20.9286 18.4956 19.3082 18.4956C17.6877 18.4956 16.374 19.8093 16.374 21.4297C16.374 23.0502 17.6877 24.3639 19.3082 24.3639Z" fill="#E9D3AF"/>
</svg>
