<svg width="38" height="35" viewBox="0 0 38 35" fill="none" xmlns="http://www.w3.org/2000/svg">
<path d="M36.5337 15.1604L21.9348 1.31016C20.1879 -0.43672 17.318 -0.43672 15.5711 1.31016L0.972214 15.1604C0.098774 15.9091 -0.275558 17.1569 0.223551 18.2799C0.597883 19.2781 1.5961 20.0267 2.71909 20.0267H3.71731V33.7522C3.71731 34.5009 4.21642 35 4.96508 35H32.4161C33.1647 35 33.6638 34.5009 33.6638 33.7522V20.0267H34.6621C35.785 20.0267 36.908 19.2781 37.2824 18.1551C37.6567 17.1569 37.2824 15.9091 36.5337 15.1604ZM11.0792 20.5258C10.4553 19.902 10.0809 19.0285 10.0809 17.7807C10.0809 16.533 10.4553 15.7843 11.0792 15.0357C11.7031 14.4118 12.5765 14.0374 13.5747 14.0374C14.5729 14.0374 15.4464 14.4118 16.0703 15.0357C16.6941 15.6595 17.0685 16.533 17.0685 17.7807C17.0685 19.0285 16.6941 19.7772 16.0703 20.5258C15.4464 21.1497 14.5729 21.5241 13.5747 21.5241C12.5765 21.5241 11.7031 21.1497 11.0792 20.5258ZM13.8243 26.5152L20.8118 14.287H23.5569L16.5694 26.5152H13.8243ZM26.302 25.7665C25.6781 26.3904 24.8047 26.7647 23.8064 26.7647C22.8082 26.7647 21.9348 26.3904 21.3109 25.7665C20.687 25.1426 20.3127 24.2692 20.3127 23.0214C20.3127 21.8984 20.687 21.025 21.3109 20.2763C21.9348 19.6524 22.8082 19.2781 23.8064 19.2781C24.8047 19.2781 25.6781 19.6524 26.302 20.2763C26.9259 20.9002 27.3002 21.7736 27.3002 23.0214C27.3002 24.2692 26.9259 25.1426 26.302 25.7665Z" fill="#E9D3AF"/>
<path d="M13.5747 16.4082C13.2004 16.4082 12.9508 16.533 12.826 16.7825C12.7013 17.0321 12.5765 17.4064 12.5765 17.7807C12.5765 18.1551 12.7013 18.6542 12.826 18.779C12.9508 19.0285 13.2004 19.1533 13.5747 19.1533C13.949 19.1533 14.1986 19.0285 14.3234 18.779C14.4482 18.5294 14.5729 18.1551 14.5729 17.7807C14.5729 17.4064 14.4482 16.9073 14.3234 16.7825C14.1986 16.533 13.949 16.4082 13.5747 16.4082Z" fill="#E9D3AF"/>
<path d="M23.8064 21.7736C23.4321 21.7736 23.1826 21.8984 23.0578 22.148C22.933 22.3975 22.8082 22.7718 22.8082 23.1462C22.8082 23.6453 22.933 24.0196 23.0578 24.1444C23.1826 24.3939 23.4321 24.5187 23.8064 24.5187C24.1808 24.5187 24.4303 24.3939 24.5551 24.1444C24.6799 23.8948 24.8047 23.5205 24.8047 23.1462C24.8047 22.6471 24.6799 22.2727 24.5551 22.148C24.3055 21.7736 24.056 21.7736 23.8064 21.7736Z" fill="#E9D3AF"/>
</svg>
