<svg width="35" height="35" viewBox="0 0 35 35" fill="none" xmlns="http://www.w3.org/2000/svg">
<path d="M5.40049 22.3088C5.40049 27.1035 9.22247 30.9779 13.9522 30.9779L14.5246 30.9394V20.0014C14.5258 19.6805 14.2688 19.42 13.9522 19.4212H12.8109V18.622L13.1271 18.7813C13.4085 18.9253 13.7516 18.8102 13.8932 18.525C14.0352 18.2398 13.9219 17.892 13.6404 17.7484L12.8109 17.3262V16.3092L13.1271 16.4684C13.4085 16.6124 13.7516 16.4974 13.8932 16.2122C14.0344 15.9273 13.9213 15.5802 13.6404 15.4367L12.8109 15.0167V13.9997L13.1271 14.1611C13.4096 14.3044 13.7532 14.1873 13.8932 13.9004C14.0352 13.6152 13.9219 13.2673 13.6404 13.1238L12.8109 12.705V11.6868L13.1271 11.8482C13.4096 11.9916 13.7532 11.8746 13.8932 11.5875C14.0344 11.3026 13.9213 10.9556 13.6404 10.812L12.8109 10.3921V9.37508L13.1271 9.53651C13.4096 9.67982 13.7532 9.56263 13.8932 9.27577C14.0352 8.99058 13.9219 8.64275 13.6404 8.49917L12.8109 8.08041V7.06221L13.1271 7.22369C13.4096 7.367 13.7532 7.24997 13.8932 6.96295C14.0322 6.67886 13.9194 6.33436 13.6404 6.19085L12.8109 5.76868V4.75162L13.1271 4.91087C13.4082 5.05486 13.7512 4.94074 13.8932 4.65577C14.0352 4.37058 13.9219 4.02273 13.6404 3.87917L12.7853 3.44344C12.7673 3.30284 12.7291 3.16969 12.6917 3.03596L12.9924 3.05123C13.3074 3.0687 13.5769 2.82432 13.5937 2.50489C13.6095 2.18724 13.3691 1.91633 13.0559 1.89873L12.0281 1.84004C11.9905 1.79967 11.9521 1.76103 11.9123 1.72271L12.0537 1.66862C12.3493 1.55635 12.4986 1.22172 12.3866 0.922455C12.2957 0.677884 12.0542 0.525633 11.7976 0.551106C11.3907 0.660494 10.9835 0.84476 10.5805 0.999209C10.4235 0.963595 10.2627 0.940688 10.0973 0.932548L10.1385 0.858123C10.291 0.580277 10.1935 0.229734 9.92022 0.0736055C9.83778 0.0267975 9.74518 0.00169007 9.65075 0.000163727C9.44051 -0.00492409 9.24493 0.108902 9.14188 0.294811L8.5829 1.30395C8.48602 1.35907 8.39073 1.4142 8.30119 1.48002L7.96268 0.939328C7.6861 0.613572 7.49683 0.631454 7.17654 0.759734C6.91003 0.930329 6.83072 1.28792 6.99949 1.55781L7.50725 2.37732C7.31759 2.70813 7.18231 3.07404 7.13534 3.46999C6.95707 3.32431 6.71336 3.29588 6.52848 3.23859C6.31734 3.24367 6.12625 3.36664 6.03185 3.55802C5.89039 3.84413 6.00523 4.19235 6.28796 4.33467L7.11307 4.75116V5.77049C6.94362 5.62701 6.70373 5.60802 6.52848 5.55037C6.3171 5.55546 6.12594 5.67909 6.03185 5.87095C5.89339 6.15593 6.0078 6.50079 6.28796 6.64304L7.11307 7.06294V8.08222C6.94335 7.93976 6.70364 7.9206 6.52848 7.86324C6.31734 7.86833 6.12625 7.99131 6.03185 8.18273C5.89339 8.4677 6.0078 8.8125 6.28796 8.95477L7.11307 9.37586V10.3951C6.94362 10.2517 6.70373 10.2327 6.52848 10.175C6.31808 10.1801 6.12716 10.3009 6.03185 10.4911C5.89039 10.7772 6.00523 11.1254 6.28796 11.2677L7.11307 11.6876V12.7069C6.94335 12.5645 6.70364 12.5453 6.52848 12.4879C6.31808 12.493 6.12716 12.6138 6.03185 12.804C5.89114 13.0898 6.00586 13.4372 6.28796 13.5795L7.11307 14.0005V15.0198C6.9434 14.8782 6.70344 14.8551 6.52848 14.7963C6.31734 14.8014 6.12625 14.9244 6.03185 15.1158C5.89039 15.4019 6.00523 15.75 6.28796 15.8924L7.11307 16.3089V17.3282C6.94362 17.1847 6.70373 17.1657 6.52848 17.1081C6.3171 17.1132 6.12594 17.2368 6.03185 17.4287C5.89039 17.7148 6.00523 18.0629 6.28796 18.2053L7.11307 18.6218V19.421H5.37489C5.42409 20.3824 5.40049 21.3464 5.40049 22.3088ZM17.0077 33.9354C18.1289 33.6241 19.243 32.9269 20.1678 32.3776C21.0485 31.848 21.8912 31.3156 22.6588 30.7691C22.75 31.1457 22.8459 31.4515 22.916 32.0413C23.0237 32.9478 23.1637 33.9838 23.8213 34.7888C24.0452 35.0651 24.4605 35.071 24.692 34.8023C25.4304 33.9393 25.8795 32.6859 26.2955 31.6033C26.4894 31.007 26.7909 30.3943 27.066 29.918C29.3524 31.2131 31.0677 33.0418 33.9275 34.7515C34.5767 35.1351 35.1561 34.2639 34.5989 33.8214C33.6984 33.1155 32.6336 31.6736 31.8341 30.1867C31.0346 28.6998 30.4978 27.1196 30.4789 26.3386L30.4578 2.12262C30.4566 1.80521 30.203 1.54823 29.8899 1.54694L20.7658 1.54575C20.4519 1.54635 20.1975 1.80428 20.1968 2.12257V12.827C21.9898 15.7518 23.919 18.5885 25.8034 21.4532C26.0575 21.8378 25.7846 22.3543 25.3279 22.3528H20.189L20.1255 27.0543C20.0482 27.753 19.1033 29.314 18.1557 30.5738C17.5783 31.3388 16.9966 32.0501 16.4554 32.784C16.216 33.1068 16.0964 33.3341 16.4176 33.7525C16.6712 34.0097 16.8829 33.9507 17.0077 33.9354ZM23.6142 2.70167C23.929 2.70052 24.1853 2.95814 24.1865 3.27735V10.7906C24.1865 11.5786 24.3403 11.983 24.5194 12.2196C25.0874 12.7699 25.9017 12.8632 26.565 13.073C27.0292 13.2611 27.5235 13.6054 27.8143 14.195C28.2555 15.0895 28.3152 15.9168 28.0381 16.5621C27.3245 17.7984 25.819 18.103 24.7677 17.3906C24.2279 17.0114 23.8452 16.3308 23.8335 15.492C23.8298 15.1741 24.08 14.9128 24.3936 14.9073C24.7085 14.9005 24.9683 15.1559 24.9737 15.4751C24.9811 15.9954 25.1641 16.2622 25.4158 16.4391C26.1084 16.793 26.5603 16.5568 26.9937 16.1016C27.1089 15.8331 27.135 15.4015 26.7966 14.7154C26.6432 14.4045 26.4549 14.2736 26.144 14.1476C25.2277 13.8633 24.1638 13.6254 23.6141 12.9229C23.2402 12.4288 23.0463 11.7364 23.0463 10.7906V3.27735C23.0475 2.95992 23.301 2.70291 23.6142 2.70167ZM27.036 2.70167C27.3508 2.70052 27.6071 2.95814 27.6083 3.27735V10.2138C27.6077 10.5334 27.3513 10.7918 27.036 10.7906C26.7224 10.7894 26.4687 10.5317 26.4681 10.2138V3.27735C26.4693 2.95992 26.7228 2.70291 27.036 2.70167ZM9.96254 3.23895C10.2774 3.23778 10.5337 3.49542 10.5349 3.81463V19.4213H9.39354V3.81463C9.39474 3.49676 9.64898 3.23956 9.96254 3.23895ZM22.4739 18.4777V21.1958H24.2622L22.4739 18.4777ZM2.55103 21.1529C1.61318 21.1529 0.841797 21.9382 0.841797 22.889C0.841797 23.8397 1.61318 24.6217 2.55103 24.6217H4.54087C4.25032 23.3686 4.25915 22.4068 4.25915 21.1529H2.55103ZM9.39354 21.7331C9.7071 21.7338 9.96132 21.9909 9.96254 22.3088V25.7776C9.9638 26.0972 9.70884 26.3571 9.39354 26.3578C9.07693 26.359 8.81996 26.0986 8.8212 25.7776V22.3088C8.82245 21.9896 9.07867 21.7319 9.39354 21.7331ZM11.6751 21.7331C11.9882 21.7343 12.2418 21.9914 12.243 22.3088V25.7776C12.2443 26.0968 11.99 26.3565 11.6751 26.3578C11.3585 26.359 11.1015 26.0986 11.1028 25.7776V22.3088C11.104 21.9896 11.3603 21.7319 11.6751 21.7331ZM8.8212 30.6303V32.7152C8.8212 33.6659 9.59702 34.4468 10.5349 34.4467C11.4727 34.4468 12.243 33.6659 12.243 32.7152V31.9724C11.0044 31.7479 9.84967 31.2842 8.8212 30.6303Z" fill="#E9D3AF"/>
</svg>
