<svg width="35" height="35" viewBox="0 0 35 35" fill="none" xmlns="http://www.w3.org/2000/svg">
<path d="M34.2128 15.2956L31.8333 12.5312C31.3785 12.0064 31.0111 11.0266 31.0111 10.3268V7.35253C31.0111 5.498 29.4889 3.97588 27.6344 3.97588H24.6601C23.9778 3.97588 22.9806 3.60847 22.4557 3.15359L19.6914 0.774181C18.4842 -0.25806 16.5072 -0.25806 15.2825 0.774181L12.5356 3.17108C12.0107 3.60847 11.0135 3.97588 10.3312 3.97588H7.30442C5.44989 3.97588 3.92777 5.498 3.92777 7.35253V10.3443C3.92777 11.0266 3.56036 12.0064 3.12297 12.5312L0.761059 15.3131C-0.253686 16.5203 -0.253686 18.4798 0.761059 19.687L3.12297 22.4688C3.56036 22.9936 3.92777 23.9734 3.92777 24.6557V27.6475C3.92777 29.502 5.44989 31.0241 7.30442 31.0241H10.3312C11.0135 31.0241 12.0107 31.3915 12.5356 31.8464L15.3 34.2258C16.5072 35.2581 18.4842 35.2581 19.7089 34.2258L22.4732 31.8464C22.9981 31.3915 23.9778 31.0241 24.6776 31.0241H27.6519C29.5064 31.0241 31.0286 29.502 31.0286 27.6475V24.6732C31.0286 23.9909 31.396 22.9936 31.8508 22.4688L34.2303 19.7045C35.245 18.4973 35.245 16.5028 34.2128 15.2956ZM25.6749 17.5L23.6279 23.7285C23.3655 24.7607 22.2632 25.6005 21.1435 25.6005H17.9068C17.347 25.6005 16.5597 25.408 16.2098 25.0581L13.6378 23.0461C13.5853 24.1658 13.078 24.6382 11.8358 24.6382H10.996C9.70132 24.6382 9.17645 24.1308 9.17645 22.9062V14.5433C9.17645 13.3185 9.70132 12.8112 10.996 12.8112H11.8533C13.148 12.8112 13.6728 13.3185 13.6728 14.5433V15.1731L17.067 10.1343C17.417 9.59197 18.3092 9.20707 19.0615 9.50449C19.8838 9.78442 20.4087 10.6942 20.2338 11.499L19.8139 14.2283C19.7789 14.4733 19.8314 14.7007 19.9888 14.8757C20.1288 15.0331 20.3387 15.1381 20.5662 15.1381H23.9778C24.6426 15.1381 25.2025 15.4005 25.5349 15.8729C25.8324 16.3278 25.8848 16.9052 25.6749 17.5Z" fill="#E9D3AF"/>
</svg>
