<svg width="36" height="35" viewBox="0 0 36 35" fill="none" xmlns="http://www.w3.org/2000/svg">
<path d="M29.8488 23.8005C29.7048 23.751 29.5525 23.731 29.4008 23.7416C29.249 23.7521 29.1009 23.7931 28.9648 23.862C28.8288 23.931 28.7076 24.0266 28.6082 24.1433C28.5089 24.26 28.4333 24.3955 28.386 24.542C28.3386 24.6886 28.3203 24.8431 28.3322 24.9968C28.3441 25.1505 28.386 25.3003 28.4553 25.4375C28.5247 25.5747 28.6202 25.6967 28.7363 25.7962C28.8524 25.8958 28.9869 25.971 29.1318 26.0176C31.7645 26.8926 32.9429 27.9374 32.9429 28.5834C32.9429 30.2092 26.9756 32.6667 17.9817 32.6667C8.98777 32.6667 3.02047 30.2092 3.02047 28.5834C3.02047 27.9374 4.19888 26.8926 6.83158 26.0176C6.97656 25.971 7.11099 25.8958 7.22711 25.7962C7.34323 25.6967 7.43873 25.5747 7.50809 25.4375C7.57745 25.3003 7.61929 25.1505 7.6312 24.9968C7.64311 24.8431 7.62484 24.6886 7.57746 24.542C7.53009 24.3955 7.45453 24.26 7.35517 24.1433C7.25581 24.0266 7.13461 23.931 6.99858 23.862C6.86255 23.7931 6.71439 23.7521 6.56266 23.7416C6.41093 23.731 6.25864 23.751 6.11459 23.8005C1.65495 25.2828 0.71875 27.2196 0.71875 28.5834C0.71875 32.7954 9.40304 35 17.9817 35C26.5603 35 35.2446 32.7954 35.2446 28.5834C35.2446 27.2196 34.3084 25.2828 29.8488 23.8005Z" fill="#E9D3AF"/>
<path d="M17.263 30.078C17.4671 30.2432 17.7205 30.3332 17.9817 30.3332C18.2429 30.3332 18.4963 30.2432 18.7004 30.078C19.1213 29.7362 28.9969 21.6072 28.9969 11.1665C28.9969 8.20493 27.8364 5.36469 25.7706 3.27058C23.7049 1.17646 20.9031 0 17.9817 0C15.0603 0 12.2585 1.17646 10.1927 3.27058C8.12698 5.36469 6.96645 8.20493 6.96645 11.1665C6.96647 21.6072 16.8421 29.7362 17.263 30.078ZM14.0359 11.1665C14.0359 10.3753 14.2674 9.60199 14.701 8.94422C15.1346 8.28645 15.7508 7.77379 16.4718 7.47106C17.1928 7.16834 17.9862 7.08916 18.7516 7.24352C19.517 7.39788 20.2201 7.77886 20.7719 8.33828C21.3237 8.89769 21.6995 9.61043 21.8517 10.3863C22.004 11.1623 21.9258 11.9665 21.6272 12.6974C21.3285 13.4283 20.8228 14.053 20.1739 14.4925C19.525 14.9321 18.7621 15.1666 17.9817 15.1666C16.9352 15.1666 15.9316 14.7451 15.1916 13.995C14.4516 13.2448 14.0359 12.2273 14.0359 11.1665Z" fill="#E9D3AF"/>
</svg>
