<svg width="25" height="26" viewBox="0 0 25 26" fill="none" xmlns="http://www.w3.org/2000/svg">
<path d="M21.0929 17.2338C20.9886 17.198 20.8784 17.1835 20.7685 17.1911C20.6586 17.1988 20.5513 17.2284 20.4528 17.2784C20.3543 17.3283 20.2666 17.3975 20.1946 17.482C20.1227 17.5665 20.068 17.6647 20.0337 17.7708C19.9994 17.8769 19.9861 17.9888 19.9948 18.1001C20.0034 18.2114 20.0337 18.3198 20.0839 18.4192C20.1341 18.5185 20.2033 18.6068 20.2874 18.6789C20.3714 18.751 20.4688 18.8055 20.5738 18.8392C22.4801 19.4728 23.3333 20.2293 23.3333 20.6971C23.3333 21.8743 19.0125 23.6538 12.5 23.6538C5.98755 23.6538 1.66667 21.8743 1.66667 20.6971C1.66667 20.2293 2.51994 19.4728 4.42627 18.8392C4.53125 18.8055 4.62859 18.751 4.71267 18.6789C4.79675 18.6068 4.8659 18.5185 4.91612 18.4192C4.96635 18.3198 4.99664 18.2114 5.00527 18.1001C5.01389 17.9888 5.00066 17.8769 4.96636 17.7708C4.93205 17.6647 4.87734 17.5665 4.8054 17.482C4.73345 17.3975 4.64569 17.3283 4.54719 17.2784C4.4487 17.2284 4.34141 17.1988 4.23154 17.1911C4.12168 17.1835 4.0114 17.198 3.9071 17.2338C0.6779 18.3071 0 19.7096 0 20.6971C0 23.747 6.28825 25.3433 12.5 25.3433C18.7118 25.3433 25 23.747 25 20.6971C25 19.7096 24.3221 18.3071 21.0929 17.2338Z" fill="white"/>
<path d="M11.9796 21.7793C12.1274 21.899 12.3109 21.9641 12.5 21.9641C12.6891 21.9641 12.8726 21.899 13.0204 21.7793C13.3252 21.5318 20.4761 15.6457 20.4761 8.08557C20.4761 5.94114 19.6357 3.88455 18.1399 2.36821C16.6441 0.85187 14.6154 0 12.5 0C10.3846 0 8.35587 0.85187 6.86006 2.36821C5.36426 3.88455 4.52393 5.94114 4.52393 8.08557C4.52394 15.6457 11.6748 21.5318 11.9796 21.7793ZM9.64286 8.08557C9.64289 7.51272 9.81048 6.95275 10.1244 6.47646C10.4384 6.00017 10.8846 5.62896 11.4067 5.40976C11.9288 5.19056 12.5033 5.13322 13.0575 5.24499C13.6117 5.35677 14.1208 5.63263 14.5204 6.0377C14.9199 6.44277 15.1921 6.95886 15.3023 7.5207C15.4125 8.08254 15.3559 8.66489 15.1397 9.19413C14.9234 9.72337 14.5572 10.1757 14.0874 10.494C13.6175 10.8122 13.0651 10.9821 12.5 10.9821C11.7422 10.9821 11.0155 10.6769 10.4797 10.1337C9.94387 9.5905 9.64286 8.85375 9.64286 8.08557Z" fill="white"/>
</svg>
