<svg width="50" height="60" viewBox="0 0 50 60" fill="none" xmlns="http://www.w3.org/2000/svg">
<path fill-rule="evenodd" clip-rule="evenodd" d="M0 47.887H7.01899C7.03276 47.887 7.04652 47.887 7.06028 47.887C7.07404 47.887 7.08781 47.8733 7.10157 47.8596C7.11533 47.846 7.12909 47.8323 7.12909 47.8186C7.12909 47.8049 7.12909 47.7912 7.12909 47.7776V45.9993C7.12909 45.9856 7.12909 45.9719 7.12909 45.9583C7.12909 45.9446 7.11533 45.9446 7.11533 45.9309C7.10157 45.9172 7.08781 45.9035 7.07404 45.9035C7.06028 45.9035 7.04652 45.9035 7.03275 45.9035H1.66529C1.43132 45.9035 1.22488 45.8625 1.01844 45.7804C0.825764 45.6984 0.646848 45.5752 0.481696 45.4111C0.316543 45.2469 0.206441 45.0691 0.123865 44.8776C0.0412882 44.6861 0 44.4672 0 44.2484V42.4701C0 42.2512 0.0412882 42.0324 0.123865 41.8272C0.206441 41.6357 0.330306 41.4579 0.481696 41.2937C0.646848 41.1296 0.825764 41.0201 1.01844 40.9381C1.21112 40.856 1.43132 40.8149 1.66529 40.8149H8.64299V42.3607H1.66529C1.65153 42.3607 1.63776 42.3607 1.624 42.3607C1.61024 42.3607 1.59648 42.3744 1.59648 42.388C1.58271 42.4017 1.56895 42.4154 1.56895 42.4154C1.56895 42.4291 1.56895 42.4427 1.56895 42.4564V44.2347C1.56895 44.2484 1.56895 44.2621 1.56895 44.2757C1.56895 44.2894 1.58271 44.2894 1.58271 44.3031C1.59648 44.3168 1.61024 44.3305 1.624 44.3305C1.63776 44.3305 1.65153 44.3305 1.66529 44.3305H7.01899C7.25296 44.3305 7.4594 44.3715 7.66584 44.4536C7.85852 44.5356 8.03743 44.6587 8.20259 44.8229C8.36774 44.987 8.47784 45.1649 8.56042 45.3564C8.64299 45.5479 8.68428 45.7667 8.68428 45.9856V47.7639C8.68428 47.9964 8.64299 48.2016 8.56042 48.4068C8.47784 48.612 8.35398 48.7898 8.20259 48.9403C8.03743 49.1044 7.85852 49.2139 7.66584 49.2959C7.47316 49.378 7.25296 49.419 7.01899 49.419H0V47.887ZM10.1294 49.1181V40.8149H11.8497L15.0289 44.5767L18.2081 40.8149H19.9284V49.4464H18.3732V43.0583L15.0289 46.9979L11.6846 43.0583V49.4464H10.1294V49.1181ZM21.401 49.1181V42.4701C21.401 42.2512 21.4423 42.0324 21.5249 41.8272C21.6075 41.622 21.7314 41.4442 21.8827 41.2937C22.0479 41.1296 22.2268 41.0201 22.4195 40.9381C22.6122 40.856 22.8324 40.8149 23.0663 40.8149H28.42C28.6402 40.8149 28.8604 40.856 29.0669 40.9381C29.2733 41.0201 29.4522 41.1432 29.6036 41.2937C29.7688 41.4579 29.8789 41.6357 29.9615 41.8272C30.044 42.0187 30.0853 42.2376 30.0853 42.4701V49.4464H28.5301V46.5328H22.97V49.4464H21.4148V49.1181H21.401ZM22.9562 44.9734H28.5164V42.4701C28.5164 42.4564 28.5164 42.4427 28.5164 42.4291C28.5164 42.4154 28.5026 42.4017 28.4889 42.388C28.4751 42.3744 28.4613 42.3607 28.4613 42.3607C28.4476 42.3607 28.4338 42.3607 28.42 42.3607H23.0663C23.0526 42.3607 23.0388 42.3607 23.025 42.3607C23.0113 42.3607 22.9975 42.3744 22.9975 42.388C22.9838 42.4017 22.97 42.4154 22.97 42.4154C22.97 42.4291 22.97 42.4427 22.97 42.4564V44.9734H22.9562ZM31.5992 49.1181V40.8286H38.6182C39.0862 40.8286 39.4715 40.9928 39.8018 41.3211C39.967 41.4852 40.0771 41.663 40.1596 41.8545C40.2422 42.0461 40.2835 42.2649 40.2835 42.4838V44.8229C40.2835 45.0418 40.2422 45.2606 40.1596 45.4521C40.0771 45.6436 39.9532 45.8215 39.8018 45.9856C39.6367 46.1498 39.4577 46.2729 39.2651 46.3549C39.0724 46.437 38.8522 46.4781 38.6182 46.4781H38.0952L40.2285 48.995V49.4464H38.5494L36.0446 46.4781L33.1544 46.4644V49.4464H31.5992V49.1181ZM33.2645 44.9186H38.6182C38.632 44.9186 38.6457 44.9186 38.6595 44.9186C38.6733 44.9186 38.6733 44.905 38.687 44.905C38.7008 44.8913 38.7008 44.8913 38.7008 44.8776C38.7008 44.8639 38.7008 44.8503 38.7008 44.8366V42.4838C38.7008 42.4701 38.7008 42.4564 38.7008 42.4427C38.7008 42.4291 38.687 42.4154 38.6733 42.4017C38.6595 42.388 38.6595 42.388 38.6457 42.388C38.632 42.388 38.632 42.388 38.6045 42.388H33.2508C33.237 42.388 33.2232 42.388 33.2095 42.388C33.1957 42.388 33.1819 42.4017 33.1819 42.4154C33.1682 42.4291 33.1544 42.4427 33.1544 42.4427C33.1544 42.4564 33.1544 42.4701 33.1544 42.4838V44.8229C33.1544 44.8366 33.1544 44.8503 33.1544 44.8639C33.1544 44.8776 33.1682 44.8776 33.1819 44.8913C33.1957 44.905 33.2095 44.905 33.2095 44.9186C33.2232 44.905 33.237 44.9186 33.2645 44.9186ZM44.8803 49.1181V42.3607H41.3157V40.8149H50V42.3607H46.4492V49.4327H44.894V49.1181H44.8803Z" fill="white"/>
<path fill-rule="evenodd" clip-rule="evenodd" d="M0 58.8295V50.5264H1.55519V54.0556H7.30801V50.5264H8.87696V59.1578H7.30801V55.6286H1.55519V59.1578H0V58.8295ZM30.6083 57.6121H37.6273C37.6411 57.6121 37.6548 57.6121 37.6686 57.6121C37.6824 57.6121 37.6961 57.5984 37.7099 57.5847C37.7236 57.5711 37.7374 57.5574 37.7374 57.5437C37.7374 57.53 37.7374 57.5163 37.7374 57.5027V55.7244C37.7374 55.7107 37.7374 55.697 37.7374 55.6834C37.7374 55.6697 37.7236 55.6697 37.7236 55.656C37.7099 55.6423 37.6961 55.6286 37.6824 55.6286C37.6686 55.6286 37.6548 55.6286 37.6411 55.6286H32.2874C32.0534 55.6286 31.847 55.5876 31.6405 55.5055C31.4478 55.4235 31.2689 55.3003 31.1038 55.1362C30.9386 54.9721 30.8285 54.7942 30.7459 54.6027C30.6634 54.4112 30.6221 54.1923 30.6221 53.9735V52.1952C30.6221 51.9763 30.6634 51.7575 30.7459 51.5523C30.8285 51.3608 30.9524 51.183 31.1038 51.0188C31.2689 50.8547 31.4478 50.7452 31.6405 50.6632C31.8332 50.5811 32.0534 50.54 32.2874 50.54H39.2651V52.0858H32.2874C32.2736 52.0858 32.2598 52.0858 32.2461 52.0858C32.2323 52.0858 32.2185 52.0995 32.2185 52.1131C32.2048 52.1268 32.191 52.1405 32.191 52.1405C32.191 52.1542 32.191 52.1679 32.191 52.1815V53.9598C32.191 53.9735 32.191 53.9872 32.191 54.0008C32.191 54.0145 32.2048 54.0145 32.2048 54.0282C32.2185 54.0419 32.2323 54.0419 32.2461 54.0556C32.2598 54.0556 32.2736 54.0556 32.2874 54.0556H37.6411C37.875 54.0556 38.0815 54.0966 38.2879 54.1787C38.4806 54.2607 38.6595 54.3839 38.8247 54.548C38.9898 54.7121 39.0999 54.89 39.1825 55.0815C39.2651 55.273 39.3064 55.4919 39.3064 55.7107V57.489C39.3064 57.7215 39.2651 57.9267 39.1825 58.1319C39.0999 58.3371 38.976 58.5149 38.8247 58.6654C38.6595 58.8295 38.4806 58.939 38.2879 59.021C38.0952 59.1031 37.875 59.1442 37.6411 59.1442H30.6221V57.6121H30.6083ZM12.0286 59.1578C11.7947 59.1578 11.5882 59.1168 11.3818 59.0347C11.1891 58.9526 11.0102 58.8295 10.845 58.6791C10.6799 58.5149 10.5698 58.3371 10.4872 58.1456C10.4046 57.9541 10.3633 57.7352 10.3633 57.5027V52.1815C10.3633 51.9627 10.4046 51.7438 10.4872 51.5386C10.5698 51.3471 10.6936 51.1693 10.845 51.0051C11.0102 50.841 11.1891 50.7316 11.3818 50.6495C11.5745 50.5674 11.7947 50.5264 12.0286 50.5264H17.3823C17.6025 50.5264 17.8227 50.5674 18.0292 50.6495C18.2356 50.7316 18.4145 50.8547 18.5659 51.0051C18.7311 51.1693 18.8412 51.3471 18.9238 51.5386C19.0063 51.7301 19.0476 51.949 19.0476 52.1815V57.5027C19.0476 57.7352 19.0063 57.9404 18.9238 58.1456C18.8412 58.3508 18.7173 58.5286 18.5659 58.6791C18.4008 58.8432 18.2219 58.9526 18.0292 59.0347C17.8365 59.1168 17.6163 59.1578 17.3823 59.1578H12.0286ZM12.0286 57.6121H17.3823C17.3961 57.6121 17.4099 57.6121 17.4236 57.6121C17.4374 57.6121 17.4511 57.5984 17.4649 57.5847C17.4787 57.5711 17.4924 57.5574 17.4924 57.5437C17.4924 57.53 17.4924 57.5163 17.4924 57.5027V52.1815C17.4924 52.1679 17.4924 52.1542 17.4924 52.1405C17.4924 52.1268 17.4787 52.1131 17.4649 52.1131C17.4511 52.0995 17.4374 52.0858 17.4374 52.0858C17.4236 52.0858 17.4099 52.0858 17.3961 52.0858H12.0286C12.0149 52.0858 12.0011 52.0858 11.9873 52.0858C11.9736 52.0858 11.9598 52.0995 11.9598 52.1131C11.946 52.1268 11.9323 52.1405 11.9323 52.1405C11.9323 52.1542 11.9323 52.1679 11.9323 52.1815V57.5027C11.9323 57.5163 11.9323 57.53 11.9323 57.5437C11.9323 57.5574 11.946 57.5711 11.9598 57.5847C11.9736 57.5984 11.9873 57.5984 12.0011 57.6121C12.0011 57.5984 12.0149 57.6121 12.0286 57.6121ZM22.158 59.1578C21.924 59.1578 21.7176 59.1168 21.5111 59.0347C21.3185 58.9526 21.1396 58.8295 20.9744 58.6791C20.8092 58.5149 20.6991 58.3371 20.6166 58.1456C20.534 57.9541 20.4927 57.7352 20.4927 57.5027V50.5264H22.0479V57.5027C22.0479 57.5163 22.0479 57.53 22.0479 57.5437C22.0479 57.5574 22.0617 57.5711 22.0754 57.5847C22.0892 57.5984 22.1029 57.5984 22.1167 57.6121C22.1305 57.6121 22.1442 57.6121 22.158 57.6121H27.5117C27.5255 57.6121 27.5392 57.6121 27.553 57.6121C27.5667 57.6121 27.5805 57.5984 27.5943 57.5847C27.608 57.5711 27.6218 57.5574 27.6218 57.5437C27.6218 57.53 27.6218 57.5163 27.6218 57.5027V50.5264H29.177V57.5027C29.177 57.7352 29.1357 57.9404 29.0531 58.1456C28.9705 58.3508 28.8467 58.5286 28.6953 58.6791C28.5301 58.8432 28.3512 58.9526 28.1585 59.0347C27.9659 59.1168 27.7457 59.1578 27.5117 59.1578H22.158ZM40.7514 58.8295V50.5264H48.7338V52.0721H42.3204V54.0556H47.4814V55.615H42.3204V57.5984H48.7338V59.1442H40.7514V58.8295Z" fill="white"/>
<path fill-rule="evenodd" clip-rule="evenodd" d="M0.593012 32.7936H14.0391C14.079 32.7936 14.119 32.787 14.1457 32.7804C14.1723 32.7672 14.2056 32.7474 14.2323 32.7144C14.2656 32.688 14.2856 32.655 14.2989 32.6286C14.3122 32.5956 14.3189 32.5626 14.3189 32.523V28.9592C14.3189 28.9196 14.3122 28.8866 14.3056 28.8602C14.2923 28.8338 14.2723 28.8075 14.2523 28.7877C14.199 28.7349 14.1257 28.7085 14.0457 28.7085H3.3182C2.86511 28.7085 2.44534 28.6293 2.05888 28.4643C1.67243 28.3059 1.31262 28.0617 0.999458 27.7449C0.686295 27.4281 0.446425 27.0783 0.286511 26.6956C0.126598 26.3062 0.0466414 25.897 0.0466414 25.4614V21.8976C0.0466414 21.0001 0.366468 20.2279 0.999458 19.601C1.31262 19.2908 1.66576 19.0532 2.05888 18.8948C2.452 18.7364 2.87178 18.6572 3.3182 18.6572H20.6222V21.6271H3.3182C3.27822 21.6271 3.24491 21.6337 3.21159 21.6469C3.18494 21.6601 3.15163 21.6799 3.12497 21.7063C3.09166 21.7393 3.07167 21.7722 3.05834 21.7986C3.04502 21.825 3.03835 21.858 3.03835 21.9042V25.468C3.03835 25.5076 3.04502 25.5406 3.05168 25.567C3.06501 25.5934 3.08499 25.6198 3.11165 25.6396C3.14496 25.6726 3.17161 25.6924 3.20493 25.7056C3.23158 25.7188 3.27156 25.7254 3.3182 25.7254H14.0391C14.4855 25.7254 14.9119 25.8046 15.2984 25.9696C15.6848 26.128 16.0446 26.3722 16.3578 26.689C16.671 27.0058 16.9108 27.3555 17.0707 27.7383C17.2307 28.1211 17.3173 28.5369 17.3173 28.9724V32.5362C17.3173 32.9784 17.2373 33.3942 17.0774 33.7836C16.9175 34.1663 16.6776 34.5227 16.3645 34.8329C16.0513 35.1431 15.6982 35.3807 15.305 35.5457C14.9119 35.7041 14.4921 35.7833 14.0457 35.7833H0V32.8134H0.593012V32.7936Z" fill="white"/>
<path fill-rule="evenodd" clip-rule="evenodd" d="M19.4492 35.1761V18.6572H22.4476V25.7188H34.1013V18.6572H37.1196V28.7085V28.8272H22.4476V35.7635H19.4492V35.1761Z" fill="white"/>
<path fill-rule="evenodd" clip-rule="evenodd" d="M39.4321 28.8272V11.7341L44.6226 15.7005V0L34.0684 8.06474V28.8272H39.4321Z" fill="white"/>
<path fill-rule="evenodd" clip-rule="evenodd" d="M43.7031 35.7701H49.9863V22.0033L41.1978 15.2915V28.8273H43.7031V35.7701Z" fill="white"/>
<path d="M41.8839 30.583H33.9082V35.7637H41.8839V30.583Z" fill="#E9D3AF"/>
</svg>
