<svg width="86" height="101" viewBox="0 0 86 101" fill="none" xmlns="http://www.w3.org/2000/svg">
<path fill-rule="evenodd" clip-rule="evenodd" d="M0.5 81.4082H12.4323C12.4557 81.4082 12.4791 81.4082 12.5025 81.4082C12.5259 81.4082 12.5493 81.385 12.5727 81.3617C12.5961 81.3385 12.6195 81.3152 12.6195 81.292C12.6195 81.2687 12.6195 81.2455 12.6195 81.2222V78.1991C12.6195 78.1759 12.6195 78.1526 12.6195 78.1294C12.6195 78.1061 12.5961 78.1061 12.5961 78.0829C12.5727 78.0596 12.5493 78.0364 12.5259 78.0364C12.5025 78.0364 12.4791 78.0364 12.4557 78.0364H3.33099C2.93325 78.0364 2.5823 77.9666 2.23135 77.8271C1.9038 77.6875 1.59964 77.4783 1.31888 77.1992C1.03812 76.9201 0.85095 76.6178 0.71057 76.2923C0.57019 75.9667 0.5 75.5947 0.5 75.2226V72.1995C0.5 71.8274 0.57019 71.4554 0.71057 71.1066C0.85095 70.781 1.06152 70.4787 1.31888 70.1996C1.59964 69.9206 1.9038 69.7346 2.23135 69.595C2.5589 69.4555 2.93325 69.3857 3.33099 69.3857H15.1931V72.0135H3.33099C3.3076 72.0135 3.2842 72.0135 3.2608 72.0135C3.23741 72.0135 3.21401 72.0367 3.21401 72.06C3.19061 72.0832 3.16722 72.1065 3.16722 72.1065C3.16722 72.1298 3.16722 72.153 3.16722 72.1763V75.1993C3.16722 75.2226 3.16722 75.2458 3.16722 75.2691C3.16722 75.2923 3.19061 75.2923 3.19061 75.3156C3.21401 75.3389 3.23741 75.3621 3.2608 75.3621C3.2842 75.3621 3.3076 75.3621 3.33099 75.3621H12.4323C12.83 75.3621 13.181 75.4319 13.5319 75.5714C13.8595 75.7109 14.1636 75.9202 14.4444 76.1993C14.7252 76.4783 14.9123 76.7806 15.0527 77.1062C15.1931 77.4317 15.2633 77.8038 15.2633 78.1759V81.1989C15.2633 81.5943 15.1931 81.9431 15.0527 82.2919C14.9123 82.6407 14.7018 82.943 14.4444 83.1988C14.1636 83.4779 13.8595 83.6639 13.5319 83.8034C13.2044 83.943 12.83 84.0127 12.4323 84.0127H0.5V81.4082ZM17.7199 83.5011V69.3857H20.6445L26.0491 75.7807L31.4538 69.3857H34.3783V84.0592H31.7345V73.1995L26.0491 79.8967L20.3638 73.1995V84.0592H17.7199V83.5011ZM36.8818 83.5011V72.1995C36.8818 71.8274 36.952 71.4554 37.0923 71.1066C37.2327 70.7577 37.4433 70.4554 37.7007 70.1996C37.9814 69.9206 38.2856 69.7346 38.6131 69.595C38.9407 69.4555 39.315 69.3857 39.7128 69.3857H48.8141C49.1884 69.3857 49.5628 69.4555 49.9137 69.595C50.2647 69.7346 50.5688 69.9438 50.8262 70.1996C51.1069 70.4787 51.2941 70.781 51.4345 71.1066C51.5749 71.4321 51.6451 71.8042 51.6451 72.1995V84.0592H49.0012V79.1061H39.549V84.0592H36.9052V83.5011H36.8818ZM39.5256 76.4551H48.9778V72.1995C48.9778 72.1763 48.9778 72.153 48.9778 72.1298C48.9778 72.1065 48.9544 72.0832 48.931 72.06C48.9077 72.0367 48.8843 72.0135 48.8843 72.0135C48.8609 72.0135 48.8375 72.0135 48.8141 72.0135H39.7128C39.6894 72.0135 39.666 72.0135 39.6426 72.0135C39.6192 72.0135 39.5958 72.0367 39.5958 72.06C39.5724 72.0832 39.549 72.1065 39.549 72.1065C39.549 72.1298 39.549 72.153 39.549 72.1763V76.4551H39.5256ZM54.2187 83.5011V69.409H66.151C66.9465 69.409 67.6016 69.688 68.1631 70.2462C68.4439 70.5252 68.631 70.8275 68.7714 71.1531C68.9118 71.4786 68.982 71.8507 68.982 72.2228V76.1993C68.982 76.5713 68.9118 76.9434 68.7714 77.269C68.631 77.5945 68.4205 77.8968 68.1631 78.1759C67.8823 78.4549 67.5782 78.6642 67.2506 78.8038C66.9231 78.9433 66.5487 79.013 66.151 79.013H65.2619L68.8884 83.2918V84.0592H66.034L61.7758 79.013L56.8625 78.9898V84.0592H54.2187V83.5011ZM57.0497 76.362H66.151C66.1744 76.362 66.1978 76.362 66.2212 76.362C66.2446 76.362 66.2446 76.3388 66.268 76.3388C66.2914 76.3155 66.2914 76.3155 66.2914 76.2923C66.2914 76.269 66.2914 76.2458 66.2914 76.2225V72.2228C66.2914 72.1995 66.2914 72.1763 66.2914 72.153C66.2914 72.1298 66.268 72.1065 66.2446 72.0832C66.2212 72.06 66.2212 72.06 66.1978 72.06C66.1744 72.06 66.1744 72.06 66.1276 72.06H57.0263C57.0029 72.06 56.9795 72.06 56.9561 72.06C56.9327 72.06 56.9093 72.0832 56.9093 72.1065C56.8859 72.1298 56.8625 72.153 56.8625 72.153C56.8625 72.1763 56.8625 72.1995 56.8625 72.2228V76.1993C56.8625 76.2225 56.8625 76.2458 56.8625 76.269C56.8625 76.2923 56.8859 76.2923 56.9093 76.3155C56.9327 76.3388 56.9561 76.3388 56.9561 76.362C56.9795 76.3388 57.0029 76.362 57.0497 76.362ZM76.7965 83.5011V72.0135H70.7367V69.3857H85.5V72.0135H79.4637V84.036H76.8198V83.5011H76.7965Z" fill="#02023D"/>
<path fill-rule="evenodd" clip-rule="evenodd" d="M0.5 100.01V85.8945H3.14382V91.8942H12.9236V85.8945H15.5908V100.568H12.9236V94.5684H3.14382V100.568H0.5V100.01ZM52.5341 97.9403H64.4664C64.4898 97.9403 64.5132 97.9403 64.5366 97.9403C64.56 97.9403 64.5834 97.917 64.6068 97.8938C64.6302 97.8705 64.6536 97.8473 64.6536 97.824C64.6536 97.8008 64.6536 97.7775 64.6536 97.7542V94.7312C64.6536 94.7079 64.6536 94.6847 64.6536 94.6614C64.6536 94.6382 64.6302 94.6382 64.6302 94.6149C64.6068 94.5917 64.5834 94.5684 64.56 94.5684C64.5366 94.5684 64.5132 94.5684 64.4898 94.5684H55.3885C54.9908 94.5684 54.6398 94.4986 54.2889 94.3591C53.9613 94.2196 53.6572 94.0103 53.3764 93.7312C53.0956 93.4522 52.9085 93.1499 52.7681 92.8243C52.6277 92.4988 52.5575 92.1267 52.5575 91.7546V88.7316C52.5575 88.3595 52.6277 87.9874 52.7681 87.6386C52.9085 87.313 53.119 87.0107 53.3764 86.7317C53.6572 86.4526 53.9613 86.2666 54.2889 86.1271C54.6164 85.9875 54.9908 85.9178 55.3885 85.9178H67.2506V88.5455H55.3885C55.3651 88.5455 55.3417 88.5455 55.3183 88.5455C55.2949 88.5455 55.2715 88.5688 55.2715 88.592C55.2481 88.6153 55.2247 88.6385 55.2247 88.6385C55.2247 88.6618 55.2247 88.6851 55.2247 88.7083V91.7314C55.2247 91.7546 55.2247 91.7779 55.2247 91.8011C55.2247 91.8244 55.2481 91.8244 55.2481 91.8476C55.2715 91.8709 55.2949 91.8709 55.3183 91.8942C55.3417 91.8942 55.3651 91.8942 55.3885 91.8942H64.4898C64.8876 91.8942 65.2385 91.9639 65.5895 92.1034C65.917 92.243 66.2212 92.4523 66.5019 92.7313C66.7827 93.0104 66.9699 93.3127 67.1102 93.6382C67.2506 93.9638 67.3208 94.3359 67.3208 94.7079V97.731C67.3208 98.1263 67.2506 98.4751 67.1102 98.8239C66.9699 99.1728 66.7593 99.4751 66.5019 99.7309C66.2212 100.01 65.917 100.196 65.5895 100.335C65.2619 100.475 64.8876 100.545 64.4898 100.545H52.5575V97.9403H52.5341ZM20.9487 100.568C20.5509 100.568 20.2 100.498 19.849 100.359C19.5215 100.219 19.2173 100.01 18.9366 99.7541C18.6558 99.4751 18.4686 99.1728 18.3282 98.8472C18.1879 98.5216 18.1177 98.1496 18.1177 97.7542V88.7083C18.1177 88.3362 18.1879 87.9642 18.3282 87.6154C18.4686 87.2898 18.6792 86.9875 18.9366 86.7084C19.2173 86.4294 19.5215 86.2433 19.849 86.1038C20.1766 85.9643 20.5509 85.8945 20.9487 85.8945H30.05C30.4243 85.8945 30.7986 85.9643 31.1496 86.1038C31.5005 86.2433 31.8047 86.4526 32.0621 86.7084C32.3428 86.9875 32.53 87.2898 32.6704 87.6154C32.8108 87.9409 32.8809 88.313 32.8809 88.7083V97.7542C32.8809 98.1496 32.8108 98.4984 32.6704 98.8472C32.53 99.196 32.3194 99.4983 32.0621 99.7541C31.7813 100.033 31.4771 100.219 31.1496 100.359C30.822 100.498 30.4477 100.568 30.05 100.568H20.9487ZM20.9487 97.9403H30.05C30.0734 97.9403 30.0967 97.9403 30.1201 97.9403C30.1435 97.9403 30.1669 97.917 30.1903 97.8938C30.2137 97.8705 30.2371 97.8473 30.2371 97.824C30.2371 97.8008 30.2371 97.7775 30.2371 97.7542V88.7083C30.2371 88.6851 30.2371 88.6618 30.2371 88.6385C30.2371 88.6153 30.2137 88.592 30.1903 88.592C30.1669 88.5688 30.1435 88.5455 30.1435 88.5455C30.1201 88.5455 30.0968 88.5455 30.0734 88.5455H20.9487C20.9253 88.5455 20.9019 88.5455 20.8785 88.5455C20.8551 88.5455 20.8317 88.5688 20.8317 88.592C20.8083 88.6153 20.7849 88.6385 20.7849 88.6385C20.7849 88.6618 20.7849 88.6851 20.7849 88.7083V97.7542C20.7849 97.7775 20.7849 97.8008 20.7849 97.824C20.7849 97.8473 20.8083 97.8705 20.8317 97.8938C20.8551 97.917 20.8785 97.917 20.9019 97.9403C20.9019 97.917 20.9253 97.9403 20.9487 97.9403ZM38.1686 100.568C37.7708 100.568 37.4199 100.498 37.0689 100.359C36.7414 100.219 36.4372 100.01 36.1565 99.7541C35.8757 99.4751 35.6885 99.1728 35.5482 98.8472C35.4078 98.5216 35.3376 98.1496 35.3376 97.7542V85.8945H37.9814V97.7542C37.9814 97.7775 37.9814 97.8008 37.9814 97.824C37.9814 97.8473 38.0048 97.8705 38.0282 97.8938C38.0516 97.917 38.075 97.917 38.0984 97.9403C38.1218 97.9403 38.1452 97.9403 38.1686 97.9403H47.2699C47.2933 97.9403 47.3167 97.9403 47.3401 97.9403C47.3635 97.9403 47.3869 97.917 47.4103 97.8938C47.4337 97.8705 47.4571 97.8473 47.4571 97.824C47.4571 97.8008 47.4571 97.7775 47.4571 97.7542V85.8945H50.1009V97.7542C50.1009 98.1496 50.0307 98.4984 49.8903 98.8472C49.7499 99.196 49.5394 99.4983 49.282 99.7541C49.0012 100.033 48.6971 100.219 48.3695 100.359C48.042 100.498 47.6676 100.568 47.2699 100.568H38.1686ZM69.7775 100.01V85.8945H83.3475V88.5223H72.4447V91.8942H81.2184V94.5451H72.4447V97.917H83.3475V100.545H69.7775V100.01Z" fill="#02023D"/>
<path fill-rule="evenodd" clip-rule="evenodd" d="M1.50812 55.7487H24.3664C24.4344 55.7487 24.5023 55.7375 24.5476 55.7262C24.5929 55.7038 24.6496 55.6701 24.6949 55.614C24.7515 55.5692 24.7855 55.5131 24.8082 55.4682C24.8308 55.4121 24.8421 55.356 24.8421 55.2887V49.2302C24.8421 49.1629 24.8308 49.1068 24.8195 49.0619C24.7968 49.0171 24.7628 48.9722 24.7289 48.9385C24.6382 48.8488 24.5136 48.8039 24.3777 48.8039H6.14094C5.37069 48.8039 4.65708 48.6693 4.0001 48.3888C3.34313 48.1195 2.73146 47.7044 2.19908 47.1659C1.6667 46.6273 1.25892 46.0327 0.987069 45.382C0.715217 44.72 0.57929 44.0244 0.57929 43.284V37.2255C0.57929 35.6997 1.123 34.387 2.19908 33.3212C2.73146 32.7939 3.3318 32.39 4.0001 32.1207C4.66841 31.8514 5.38202 31.7168 6.14094 31.7168H35.5577V36.7655H6.14094C6.07298 36.7655 6.01634 36.7767 5.95971 36.7992C5.9144 36.8216 5.85776 36.8553 5.81245 36.9001C5.75582 36.9562 5.72184 37.0123 5.69918 37.0572C5.67653 37.1021 5.6652 37.1582 5.6652 37.2367V43.2952C5.6652 43.3625 5.67653 43.4186 5.68785 43.4635C5.71051 43.5083 5.74449 43.5532 5.7898 43.5869C5.84644 43.643 5.89174 43.6766 5.94838 43.6991C5.99369 43.7215 6.06165 43.7327 6.14094 43.7327H24.3664C25.1253 43.7327 25.8503 43.8674 26.5072 44.1479C27.1642 44.4171 27.7759 44.8322 28.3083 45.3708C28.8406 45.9093 29.2484 46.5039 29.5203 47.1546C29.7921 47.8054 29.9394 48.5122 29.9394 49.2527V55.3111C29.9394 56.0628 29.8034 56.7696 29.5316 57.4316C29.2597 58.0823 28.852 58.6881 28.3196 59.2155C27.7872 59.7428 27.1869 60.1467 26.5186 60.4271C25.8503 60.6964 25.1366 60.831 24.3777 60.831H0.5V55.7823H1.50812V55.7487Z" fill="#02023D"/>
<path fill-rule="evenodd" clip-rule="evenodd" d="M33.564 59.7989V31.7168H38.6612V43.7215H58.4725V31.7168H63.6037V48.8039V49.0058H38.6612V60.7974H33.564V59.7989Z" fill="#02023D"/>
<path fill-rule="evenodd" clip-rule="evenodd" d="M67.5344 49.0062V19.948L76.3583 26.6909V0L58.416 13.7101V49.0062H67.5344Z" fill="#02023D"/>
<path fill-rule="evenodd" clip-rule="evenodd" d="M74.7952 60.8088H85.4767V37.4052L70.5361 25.9951V49.006H74.7952V60.8088Z" fill="#02023D"/>
<path d="M71.7027 51.9912H58.144V60.7984H71.7027V51.9912Z" fill="#E9D3AF"/>
</svg>
