<svg width="1721" height="357" viewBox="0 0 1721 357" fill="none" xmlns="http://www.w3.org/2000/svg">
<path fill-rule="evenodd" clip-rule="evenodd" d="M179.448 295.227H453.454C454.245 295.227 455.035 295.227 455.562 294.96C456.089 294.692 456.616 294.157 457.406 293.622C457.933 293.088 458.46 292.285 458.724 291.751C458.987 291.216 458.987 290.414 458.987 289.611V215.002C458.987 214.2 458.987 213.398 458.724 212.863C458.46 212.328 458.197 211.793 457.67 211.258C456.616 210.189 455.035 209.654 453.454 209.654H235.039C225.818 209.654 217.387 208.049 209.22 204.573C201.316 201.097 193.938 196.283 187.615 189.598C181.292 182.912 176.286 175.692 173.125 167.67C169.963 159.647 168.119 151.09 168.119 141.73V67.6562C168.119 48.9371 174.705 32.8921 187.615 19.7888C193.938 13.3708 201.316 8.28989 209.22 5.0809C217.387 1.60449 225.818 0 235.039 0H1721V62.0405H235.039C234.249 62.0405 233.459 62.0405 232.932 62.3079C232.405 62.5753 231.614 63.1101 231.087 63.6449C230.561 64.4472 230.034 64.982 229.77 65.5169C229.507 66.0517 229.507 66.8539 229.507 67.6562V141.998C229.507 142.8 229.507 143.602 229.77 144.137C230.034 144.672 230.297 145.207 230.824 145.742C231.351 146.276 232.141 146.811 232.668 147.079C233.195 147.346 233.986 147.346 235.039 147.346H453.454C462.676 147.346 471.107 148.951 479.274 152.427C487.178 155.903 494.555 160.717 500.879 167.402C507.202 174.088 512.208 181.308 515.369 189.33C518.794 197.353 520.375 205.91 520.375 215.002V289.344C520.375 298.703 518.794 307.261 515.369 315.283C512.208 323.306 507.202 330.793 500.879 337.211C494.555 343.629 487.178 348.71 479.274 351.919C471.37 355.128 462.676 357 453.718 357H0.123535V294.96H179.448V295.227Z" fill="#F7F7F7"/>
</svg>
