<svg width="39" height="35" viewBox="0 0 39 35" fill="none" xmlns="http://www.w3.org/2000/svg">
<path d="M22.9558 0.0203228C15.7866 0.454817 9.84852 6.32048 9.41403 13.562C8.97954 21.8174 15.4245 28.6245 23.5351 28.6969V34.2729C23.5351 34.4902 23.7523 34.5626 23.8972 34.4177L33.3836 24.9313C36.2802 22.3243 38.0906 18.4863 38.0906 14.2862C38.0906 6.17565 31.2835 -0.414171 22.9558 0.0203228Z" fill="#E9D3AF"/>
<path d="M11.7313 28.2624V26.5244H10.5003C6.66224 26.452 3.2587 23.6278 2.89662 19.7898C2.53455 16.0966 4.85185 12.9103 8.11055 11.8965C8.25538 10.8102 8.54504 9.79643 8.97954 8.78261C3.91044 9.36194 0 13.7069 0 18.9932C0 24.1347 3.83803 28.4797 8.83471 29.2762V34.7798C8.83471 34.9971 9.05195 35.0695 9.19678 34.9246L16.0039 28.1176C15.1349 27.6107 14.3383 27.0313 13.6141 26.452L11.7313 28.2624Z" fill="#E9D3AF"/>
</svg>
