<svg width="130" height="131" viewBox="0 0 130 131" fill="none" xmlns="http://www.w3.org/2000/svg">
<path d="M119.056 66.7082L130 67.6405L129.871 69.156L128.581 69.0461L128.57 69.1759C128.728 69.2799 128.909 69.426 129.112 69.6141C129.315 69.8022 129.485 70.0537 129.622 70.3685C129.762 70.6837 129.812 71.0886 129.77 71.5834C129.715 72.227 129.504 72.7875 129.136 73.265C128.769 73.7425 128.267 74.0988 127.631 74.3339C126.995 74.5725 126.247 74.6551 125.387 74.5818C124.526 74.5086 123.801 74.3021 123.211 73.9626C122.623 73.6233 122.185 73.1887 121.896 72.6587C121.611 72.1291 121.495 71.5424 121.55 70.8989C121.591 70.4145 121.706 70.0252 121.895 69.7311C122.083 69.4405 122.293 69.2179 122.525 69.0634C122.758 68.909 122.962 68.7922 123.14 68.7132L123.148 68.6198L118.924 68.26L119.056 66.7082ZM125.891 68.8222C125.332 68.7745 124.834 68.814 124.399 68.9408C123.964 69.0675 123.614 69.2747 123.349 69.5623C123.088 69.8502 122.939 70.2174 122.901 70.6637C122.862 71.1274 122.951 71.5253 123.17 71.8576C123.392 72.1902 123.709 72.4542 124.121 72.6495C124.532 72.8484 125.003 72.9704 125.535 73.0158C126.06 73.0605 126.539 73.0211 126.97 72.8975C127.401 72.7774 127.751 72.5703 128.02 72.276C128.288 71.9852 128.442 71.6062 128.482 71.1391C128.52 70.6893 128.436 70.2989 128.231 69.9677C128.026 69.6401 127.723 69.379 127.322 69.1845C126.921 68.9901 126.444 68.8693 125.891 68.8222Z" fill="#E2E2E2"/>
<path d="M120.027 79.2407C120.191 78.616 120.497 78.1005 120.944 77.694C121.394 77.2918 121.952 77.0294 122.619 76.9069C123.288 76.7887 124.04 76.8394 124.875 77.0593C125.71 77.2791 126.387 77.6065 126.908 78.0415C127.427 78.4799 127.78 78.9857 127.966 79.559C128.153 80.1323 128.165 80.7297 128.002 81.351C127.876 81.8312 127.694 82.1963 127.456 82.4461C127.221 82.7001 126.977 82.8799 126.723 82.9855C126.469 83.0945 126.249 83.1731 126.064 83.2214L126.041 83.3121L129.868 84.3198L129.473 85.8261L119.172 83.1141L119.558 81.6431L120.76 81.9596L120.793 81.8336C120.653 81.6997 120.499 81.5193 120.333 81.2924C120.166 81.0688 120.042 80.7886 119.962 80.4515C119.882 80.1145 119.904 79.7109 120.027 79.2407ZM121.223 79.9109C121.109 80.3441 121.127 80.7402 121.276 81.0991C121.429 81.4623 121.689 81.775 122.057 82.0372C122.425 82.3027 122.88 82.507 123.424 82.65C123.96 82.7913 124.45 82.8376 124.893 82.789C125.336 82.7405 125.709 82.5964 126.012 82.3566C126.315 82.1168 126.524 81.777 126.64 81.337C126.758 80.8836 126.74 80.4749 126.585 80.1109C126.43 79.7468 126.169 79.4341 125.804 79.1728C125.438 78.9149 125 78.7188 124.49 78.5846C123.974 78.4487 123.489 78.4036 123.036 78.4495C122.584 78.4954 122.197 78.6377 121.876 78.8764C121.558 79.1194 121.34 79.4642 121.223 79.9109Z" fill="#E2E2E2"/>
<path d="M124.254 91.635L123.103 91.1524L124.846 86.9817L125.997 87.4644L124.254 91.635ZM118.151 85.5188L126.373 88.966C126.833 89.159 127.173 89.4202 127.393 89.7493C127.616 90.0798 127.733 90.4432 127.744 90.8393C127.758 91.2368 127.683 91.631 127.52 92.0218C127.4 92.3101 127.273 92.5467 127.139 92.7316C127.008 92.9178 126.903 93.0525 126.823 93.1357L125.803 92.3127C125.85 92.2535 125.909 92.1764 125.979 92.0814C126.052 91.9877 126.12 91.8656 126.183 91.7151C126.328 91.3659 126.346 91.0799 126.237 90.8569C126.126 90.6372 125.907 90.4589 125.581 90.3222L117.55 86.9555L118.151 85.5188Z" fill="#E2E2E2"/>
<path d="M104.853 101.125L112.449 109.072L111.352 110.124L110.456 109.187L110.362 109.277C110.412 109.46 110.451 109.689 110.48 109.965C110.508 110.24 110.47 110.542 110.364 110.868C110.262 111.198 110.031 111.534 109.673 111.877C109.207 112.324 108.679 112.605 108.088 112.72C107.497 112.834 106.885 112.77 106.253 112.525C105.618 112.283 105.002 111.849 104.405 111.225C103.808 110.6 103.401 109.965 103.182 109.319C102.965 108.676 102.923 108.06 103.056 107.471C103.192 106.884 103.492 106.367 103.958 105.921C104.309 105.585 104.652 105.369 104.987 105.273C105.32 105.179 105.625 105.152 105.901 105.19C106.178 105.228 106.408 105.276 106.593 105.334L106.661 105.269L103.73 102.202L104.853 101.125ZM108.586 107.238C108.198 106.831 107.798 106.532 107.388 106.338C106.978 106.145 106.579 106.069 106.19 106.11C105.804 106.153 105.45 106.329 105.127 106.639C104.791 106.961 104.596 107.319 104.541 107.713C104.488 108.11 104.551 108.518 104.731 108.937C104.908 109.358 105.181 109.762 105.551 110.148C105.915 110.529 106.3 110.816 106.705 111.01C107.108 111.205 107.507 111.281 107.903 111.238C108.296 111.198 108.662 111.015 109 110.691C109.326 110.379 109.521 110.031 109.585 109.647C109.648 109.265 109.593 108.868 109.42 108.457C109.248 108.045 108.97 107.639 108.586 107.238Z" fill="#E2E2E2"/>
<path d="M97.2596 111.185C97.7946 110.825 98.364 110.64 98.9678 110.63C99.5707 110.626 100.163 110.798 100.744 111.147C101.325 111.501 101.856 112.036 102.338 112.754C102.82 113.471 103.112 114.165 103.216 114.836C103.317 115.509 103.249 116.122 103.011 116.676C102.773 117.23 102.388 117.686 101.856 118.045C101.444 118.322 101.067 118.476 100.724 118.506C100.38 118.541 100.078 118.515 99.8178 118.426C99.5549 118.34 99.3382 118.254 99.1676 118.168L99.09 118.22L101.299 121.509L100.009 122.378L94.0633 113.528L95.3232 112.679L96.0171 113.712L96.1249 113.639C96.1077 113.445 96.1115 113.208 96.1363 112.928C96.1582 112.65 96.2502 112.357 96.4123 112.051C96.5745 111.745 96.8569 111.457 97.2596 111.185ZM97.7152 112.479C97.3441 112.729 97.0964 113.038 96.972 113.407C96.8467 113.78 96.836 114.187 96.9398 114.628C97.0407 115.07 97.248 115.525 97.5616 115.992C97.8712 116.453 98.2084 116.811 98.573 117.068C98.9375 117.325 99.3127 117.463 99.6983 117.484C100.084 117.504 100.465 117.387 100.842 117.133C101.23 116.872 101.486 116.553 101.61 116.176C101.733 115.8 101.744 115.393 101.642 114.956C101.537 114.52 101.338 114.083 101.043 113.645C100.745 113.201 100.411 112.847 100.041 112.582C99.6703 112.317 99.286 112.167 98.8877 112.135C98.4886 112.106 98.0977 112.221 97.7152 112.479Z" fill="#E2E2E2"/>
<path d="M92.2459 123.275L91.7005 122.15L95.7606 120.174L96.306 121.299L92.2459 123.275ZM91.702 114.644L95.5973 122.675C95.8155 123.124 95.8983 123.545 95.8458 123.938C95.7948 124.333 95.6427 124.683 95.3896 124.988C95.138 125.296 94.822 125.542 94.4416 125.727C94.1609 125.864 93.9094 125.957 93.6871 126.007C93.4663 126.061 93.2985 126.092 93.1837 126.102L92.9611 124.809C93.0357 124.796 93.1305 124.777 93.2455 124.751C93.3621 124.729 93.4936 124.683 93.6402 124.611C93.9801 124.446 94.1824 124.243 94.2472 124.003C94.3088 123.765 94.2623 123.486 94.1078 123.168L90.3034 115.325L91.702 114.644Z" fill="#E2E2E2"/>
<path d="M74.9911 117.057L76.1744 127.994L74.6647 128.158L74.5252 126.868L74.3959 126.882C74.3242 127.058 74.2157 127.263 74.0704 127.499C73.925 127.735 73.7112 127.95 73.4288 128.145C73.1469 128.343 72.7595 128.469 72.2666 128.523C71.6255 128.592 71.0358 128.492 70.4974 128.222C69.9591 127.952 69.5138 127.527 69.1617 126.947C68.806 126.368 68.5817 125.648 68.4887 124.788C68.3957 123.929 68.459 123.176 68.6786 122.531C68.8986 121.888 69.2405 121.375 69.7044 120.989C70.1687 120.607 70.7214 120.381 71.3625 120.311C71.8451 120.259 72.2485 120.297 72.5728 120.426C72.8937 120.555 73.1521 120.719 73.3479 120.918C73.5438 121.117 73.6974 121.296 73.8088 121.455L73.9019 121.445L73.4453 117.224L74.9911 117.057ZM74.2292 124.181C74.1687 123.622 74.0347 123.14 73.8271 122.737C73.6196 122.333 73.3495 122.029 73.017 121.824C72.6848 121.622 72.2964 121.546 71.8518 121.594C71.3899 121.644 71.0172 121.809 70.7335 122.087C70.4501 122.37 70.2522 122.732 70.1396 123.174C70.0235 123.616 69.9942 124.103 70.0518 124.634C70.1085 125.159 70.2388 125.622 70.4425 126.022C70.6428 126.423 70.9129 126.727 71.2527 126.935C71.589 127.143 71.9899 127.222 72.4552 127.171C72.9033 127.123 73.2699 126.966 73.5551 126.701C73.8368 126.436 74.0346 126.088 74.1483 125.657C74.262 125.225 74.289 124.733 74.2292 124.181Z" fill="#E2E2E2"/>
<path d="M62.6565 120.369C63.2998 120.414 63.8625 120.619 64.3446 120.983C64.823 121.35 65.1844 121.851 65.4289 122.484C65.6697 123.12 65.7601 123.87 65.7002 124.732C65.6403 125.595 65.4456 126.323 65.1159 126.916C64.7828 127.509 64.3525 127.95 63.8249 128.241C63.2974 128.531 62.7136 128.654 62.0738 128.61C61.5792 128.575 61.1873 128.464 60.8979 128.277C60.6049 128.093 60.3829 127.886 60.2321 127.656C60.0777 127.426 59.9597 127.225 59.8778 127.052L59.7844 127.046L59.5098 131L57.9587 130.892L58.6977 120.25L60.2125 120.356L60.1263 121.597L60.256 121.607C60.3611 121.443 60.5095 121.259 60.701 121.053C60.8891 120.847 61.141 120.673 61.4567 120.531C61.7723 120.389 62.1723 120.335 62.6565 120.369ZM62.222 121.67C61.7759 121.639 61.3907 121.731 61.0666 121.945C60.7387 122.162 60.4805 122.477 60.2921 122.888C60.1002 123.3 59.9847 123.786 59.9458 124.347C59.9073 124.901 59.9532 125.392 60.0834 125.819C60.2136 126.245 60.4246 126.586 60.7163 126.839C61.008 127.093 61.3804 127.235 61.8334 127.267C62.3003 127.299 62.6979 127.205 63.026 126.984C63.3541 126.763 63.6122 126.449 63.8004 126.041C63.9852 125.633 64.0958 125.165 64.1324 124.639C64.1694 124.105 64.1232 123.62 63.9937 123.183C63.8642 122.745 63.6525 122.391 63.3585 122.12C63.0609 121.852 62.682 121.702 62.222 121.67Z" fill="#E2E2E2"/>
<path d="M51.3105 126.852L51.5678 125.629L55.9848 126.561L55.7276 127.784L51.3105 126.852ZM56.1626 119.699L54.3257 128.436C54.2228 128.925 54.0306 129.309 53.749 129.586C53.4667 129.867 53.1323 130.051 52.7459 130.136C52.3588 130.225 51.9583 130.225 51.5444 130.138C51.2391 130.074 50.9832 129.993 50.7768 129.896C50.5697 129.803 50.4178 129.725 50.3212 129.662L50.9368 128.503C51.0038 128.539 51.0904 128.582 51.1966 128.633C51.3021 128.687 51.4346 128.731 51.594 128.764C51.9638 128.842 52.2477 128.806 52.4458 128.657C52.6404 128.506 52.7742 128.257 52.847 127.911L54.6411 119.378L56.1626 119.699Z" fill="#E2E2E2"/>
<path d="M41.5009 111.379L35.7416 120.746L34.4486 119.948L35.1276 118.844L35.0169 118.776C34.8529 118.87 34.6413 118.966 34.3821 119.063C34.1229 119.16 33.8222 119.199 33.4799 119.18C33.1359 119.163 32.7527 119.025 32.3306 118.764C31.7815 118.426 31.3769 117.984 31.1168 117.441C30.8567 116.897 30.765 116.288 30.8417 115.613C30.9155 114.937 31.1788 114.231 31.6315 113.494C32.0841 112.758 32.5948 112.202 33.1634 111.827C33.7302 111.455 34.3149 111.259 34.9174 111.239C35.5182 111.222 36.0931 111.383 36.6422 111.722C37.0555 111.977 37.3508 112.255 37.5281 112.556C37.7024 112.855 37.8061 113.143 37.8392 113.421C37.8723 113.698 37.8841 113.934 37.8748 114.128L37.9545 114.177L40.1769 110.562L41.5009 111.379ZM36.5385 116.539C36.833 116.06 37.0218 115.598 37.1048 115.151C37.1879 114.705 37.1607 114.299 37.0234 113.933C36.8843 113.57 36.6243 113.271 36.2435 113.036C35.848 112.792 35.4528 112.693 35.058 112.739C34.6614 112.788 34.2835 112.952 33.924 113.232C33.5617 113.51 33.2405 113.877 32.9606 114.332C32.6842 114.782 32.504 115.227 32.4198 115.669C32.3327 116.109 32.3598 116.515 32.5012 116.888C32.6396 117.258 32.9081 117.567 33.3066 117.813C33.6904 118.049 34.076 118.151 34.4635 118.116C34.8481 118.08 35.2173 117.927 35.5713 117.656C35.9252 117.385 36.2476 117.012 36.5385 116.539Z" fill="#E2E2E2"/>
<path d="M29.8944 106.58C30.3776 107.008 30.6999 107.513 30.8612 108.096C31.0175 108.679 31.0004 109.297 30.8097 109.948C30.6142 110.6 30.2306 111.25 29.6591 111.898C29.0875 112.546 28.4907 113.004 27.8688 113.274C27.2443 113.542 26.6344 113.63 26.0393 113.539C25.4442 113.448 24.9063 113.19 24.4257 112.764C24.0541 112.436 23.8104 112.109 23.6946 111.784C23.5738 111.459 23.5234 111.16 23.5433 110.885C23.5606 110.609 23.5893 110.377 23.6293 110.19L23.5591 110.128L20.9389 113.098L19.7736 112.067L26.8252 104.073L27.9632 105.08L27.1403 106.013L27.2378 106.099C27.4204 106.034 27.6503 105.978 27.9274 105.931C28.2019 105.882 28.5074 105.897 28.844 105.977C29.1805 106.057 29.5306 106.258 29.8944 106.58ZM28.7591 107.348C28.424 107.051 28.0627 106.889 27.6754 106.862C27.2832 106.834 26.8873 106.926 26.4877 107.138C26.0855 107.348 25.6985 107.663 25.3267 108.085C24.9594 108.501 24.6978 108.918 24.5418 109.336C24.3859 109.754 24.3467 110.153 24.4241 110.532C24.5015 110.911 24.7104 111.251 25.0508 111.552C25.4016 111.863 25.7742 112.03 26.1687 112.055C26.5632 112.08 26.9591 111.987 27.3564 111.778C27.7511 111.567 28.1229 111.263 28.4718 110.868C28.8253 110.467 29.0834 110.054 29.2463 109.628C29.4091 109.202 29.4562 108.792 29.3877 108.398C29.3142 108.004 29.1047 107.654 28.7591 107.348Z" fill="#E2E2E2"/>
<path d="M16.9563 104.797L17.9035 103.983L20.8427 107.415L19.8954 108.229L16.9563 104.797ZM25.1521 102.079L18.387 107.892C18.0081 108.217 17.6225 108.405 17.2303 108.453C16.8355 108.504 16.4589 108.446 16.1004 108.278C15.7394 108.112 15.4211 107.869 15.1457 107.547C14.9425 107.31 14.7885 107.09 14.6834 106.888C14.5758 106.687 14.5028 106.533 14.4644 106.424L15.6566 105.88C15.6882 105.949 15.7307 106.036 15.7842 106.141C15.835 106.248 15.9134 106.364 16.0195 106.488C16.2656 106.775 16.5127 106.919 16.7609 106.921C17.0068 106.92 17.264 106.805 17.5324 106.574L24.1396 100.897L25.1521 102.079Z" fill="#E2E2E2"/>
<path d="M17.2119 83.2189L6.70287 86.4166L6.26147 84.9613L7.50046 84.5843L7.46267 84.4597C7.27724 84.4218 7.05534 84.3532 6.79698 84.254C6.53861 84.1548 6.28763 83.9844 6.04405 83.7427C5.79715 83.5021 5.60164 83.1443 5.45753 82.6691C5.27009 82.0511 5.25871 81.4521 5.4234 80.8721C5.58809 80.2922 5.92218 79.775 6.42569 79.3205C6.92819 78.8628 7.59244 78.5082 8.41844 78.2569C9.24443 78.0055 9.99449 77.9279 10.6686 78.024C11.3394 78.1211 11.9071 78.3621 12.3717 78.747C12.8329 79.1329 13.1573 79.6348 13.3447 80.2529C13.4858 80.718 13.5233 81.1222 13.457 81.4653C13.3898 81.8052 13.2769 82.0899 13.1183 82.3196C12.9597 82.5494 12.8127 82.7338 12.6774 82.873L12.7046 82.9627L16.7599 81.7287L17.2119 83.2189ZM10.0814 83.7935C10.6188 83.63 11.0662 83.4086 11.4235 83.1293C11.7809 82.85 12.0291 82.5277 12.1683 82.1623C12.3042 81.798 12.3072 81.4015 12.1772 80.9729C12.0421 80.5276 11.8115 80.1913 11.4853 79.964C11.1557 79.7376 10.7638 79.6101 10.3094 79.5814C9.854 79.5494 9.37088 79.6111 8.86003 79.7666C8.3558 79.92 7.92618 80.1342 7.57115 80.4092C7.21511 80.6808 6.96684 81.0031 6.82634 81.3762C6.68483 81.7458 6.6821 82.155 6.81815 82.6035C6.94916 83.0355 7.17114 83.3671 7.48409 83.5985C7.79604 83.8266 8.17422 83.9565 8.61865 83.9882C9.06308 84.0199 9.55067 83.955 10.0814 83.7935Z" fill="#E2E2E2"/>
<path d="M11.6925 72.0164C11.7718 72.6574 11.6792 73.2497 11.4146 73.7935C11.1461 74.3342 10.7251 74.7853 10.1515 75.147C9.57404 75.5056 8.85695 75.7381 8.00024 75.8444C7.14353 75.9508 6.39298 75.8987 5.74859 75.6883C5.10378 75.4744 4.58853 75.136 4.20285 74.673C3.81717 74.21 3.58489 73.6598 3.50599 73.0222C3.44501 72.5294 3.47855 72.1229 3.60659 71.8025C3.73078 71.4792 3.89101 71.2214 4.0873 71.029C4.28316 70.8333 4.45791 70.6786 4.61155 70.5651L4.60003 70.472L0.672567 70.9596L0.481304 69.414L11.0509 68.1018L11.2377 69.6113L10.0042 69.7644L10.0202 69.8936C10.2003 69.9657 10.4096 70.0762 10.6481 70.225C10.8862 70.3704 11.1049 70.5847 11.3041 70.8679C11.5033 71.1511 11.6328 71.5339 11.6925 72.0164ZM10.3343 71.8386C10.2792 71.3941 10.1158 71.0329 9.84386 70.7553C9.56808 70.4746 9.2105 70.2811 8.77113 70.1746C8.33133 70.0648 7.83274 70.0445 7.27536 70.1136C6.72486 70.182 6.25298 70.321 5.85972 70.5308C5.46647 70.7406 5.17355 71.0132 4.98099 71.3485C4.78842 71.6838 4.72007 72.0772 4.77593 72.5287C4.8335 72.9939 5.0019 73.3666 5.28112 73.6469C5.56035 73.9271 5.91792 74.1207 6.35386 74.2275C6.78936 74.3309 7.2686 74.3502 7.79158 74.2852C8.32143 74.2195 8.78815 74.081 9.19173 73.87C9.59531 73.6589 9.90177 73.3829 10.1111 73.042C10.3166 72.6981 10.391 72.297 10.3343 71.8386Z" fill="#E2E2E2"/>
<path d="M3.17933 61.7373L4.4272 61.7614L4.34008 66.2818L3.09221 66.2577L3.17933 61.7373ZM11.1025 65.1726L2.1906 65.0003C1.69145 64.9907 1.27933 64.8733 0.954251 64.6482C0.625701 64.423 0.383447 64.1283 0.227489 63.7641C0.0680647 63.3998 -0.00756628 63.0059 0.000596364 62.5823C0.00661798 62.2698 0.0377673 62.003 0.0940443 61.7818C0.146854 61.5606 0.195094 61.3965 0.238764 61.2897L1.49001 61.6786C1.4678 61.7511 1.44173 61.8443 1.41179 61.9584C1.37839 62.0723 1.36012 62.2109 1.35697 62.3741C1.34968 62.7525 1.43805 63.0251 1.62208 63.1919C1.80619 63.3553 2.07502 63.4403 2.42858 63.4472L11.1325 63.6155L11.1025 65.1726Z" fill="#E2E2E2"/>
<path d="M16.4302 49.3274L6.1615 45.424L6.70029 44.002L7.91095 44.4622L7.95708 44.3405C7.83347 44.1969 7.69971 44.0068 7.55578 43.7701C7.41185 43.5334 7.31722 43.2448 7.2719 42.9045C7.22333 42.5629 7.28701 42.1599 7.46291 41.6957C7.69172 41.0918 8.04827 40.6108 8.53255 40.2526C9.01684 39.8944 9.5969 39.6896 10.2727 39.6382C10.9498 39.5836 11.6919 39.7097 12.499 40.0165C13.3061 40.3233 13.947 40.7211 14.4219 41.2099C14.8935 41.6974 15.1957 42.2357 15.3285 42.8247C15.4581 43.4126 15.4085 44.0084 15.1797 44.6123C15.0075 45.0668 14.7904 45.4096 14.5286 45.6406C14.268 45.8684 14.0049 46.0246 13.7391 46.1093C13.4734 46.1941 13.2446 46.2501 13.0525 46.2773L13.0193 46.365L16.9819 47.8713L16.4302 49.3274ZM10.4362 45.4165C10.9613 45.6161 11.4505 45.7148 11.9038 45.7125C12.357 45.7103 12.7502 45.6072 13.0834 45.4032C13.4132 45.1981 13.6575 44.8861 13.8162 44.4673C13.9811 44.0322 14.0038 43.6249 13.8843 43.2452C13.7617 42.8643 13.5293 42.5234 13.1872 42.2225C12.8463 41.9183 12.4263 41.6714 11.9271 41.4817C11.4344 41.2944 10.9637 41.2009 10.5149 41.2011C10.0673 41.1981 9.67414 41.3012 9.3353 41.5104C8.99769 41.7164 8.74585 42.0385 8.57979 42.4768C8.41987 42.8988 8.39314 43.2972 8.4996 43.672C8.60729 44.0435 8.82732 44.3778 9.1597 44.675C9.49208 44.9722 9.91758 45.2194 10.4362 45.4165Z" fill="#E2E2E2"/>
<path d="M18.9789 36.9084C18.6488 37.4633 18.2128 37.8741 17.6708 38.1408C17.1276 38.4028 16.5187 38.5003 15.8443 38.4333C15.1686 38.3616 14.46 38.1045 13.7183 37.662C12.9767 37.2194 12.4159 36.7171 12.036 36.1549C11.6578 35.5898 11.4583 35.0059 11.4373 34.4032C11.4164 33.8006 11.5701 33.2234 11.8983 32.6715C12.1521 32.2448 12.4276 31.9444 12.7249 31.7702C13.0211 31.5912 13.3055 31.4861 13.5784 31.4548C13.8529 31.4206 14.0857 31.4059 14.2765 31.4106L14.3245 31.3301L10.9245 29.3014L11.7203 27.9634L20.8702 33.423L20.0931 34.7296L19.0253 34.0925L18.9587 34.2044C19.0568 34.372 19.1544 34.5879 19.2515 34.852C19.3505 35.1131 19.3918 35.4167 19.3757 35.7628C19.3595 36.1088 19.2273 36.4907 18.9789 36.9084ZM18.0152 35.9332C18.2441 35.5484 18.3363 35.1628 18.2916 34.7764C18.2458 34.3853 18.082 34.0127 17.8003 33.6587C17.5203 33.3016 17.139 32.9792 16.6565 32.6913C16.18 32.4069 15.7222 32.2267 15.2831 32.1507C14.8441 32.0746 14.4458 32.1099 14.0883 32.2563C13.7309 32.4027 13.4359 32.6714 13.2035 33.0622C12.9639 33.4649 12.8686 33.8627 12.9174 34.2556C12.9662 34.6485 13.13 35.0211 13.4088 35.3734C13.6893 35.7227 14.0559 36.0324 14.5087 36.3025C14.9674 36.5762 15.4207 36.7538 15.8687 36.8351C16.3166 36.9165 16.7277 36.8869 17.1018 36.7464C17.4748 36.6011 17.7792 36.33 18.0152 35.9332Z" fill="#E2E2E2"/>
<path d="M18.3934 23.7334L19.3668 24.5159L16.5414 28.0419L15.5681 27.2595L18.3934 23.7334ZM22.5724 31.3004L15.6208 25.7123C15.2315 25.3993 14.9767 25.0543 14.8566 24.6772C14.7337 24.2979 14.7216 23.9164 14.8202 23.5326C14.9161 23.1466 15.0964 22.7884 15.3612 22.458C15.5565 22.2143 15.7438 22.022 15.9233 21.8813C16.1 21.7384 16.2382 21.638 16.3379 21.5802L17.0916 22.6535C17.0298 22.6973 16.9523 22.7552 16.859 22.8272C16.7631 22.897 16.6641 22.9956 16.5621 23.1229C16.3256 23.4181 16.2293 23.688 16.2734 23.9326C16.3195 24.1746 16.4805 24.4064 16.7563 24.6281L23.5457 30.0858L22.5724 31.3004Z" fill="#E2E2E2"/>
<path d="M36.5355 21.9472L30.7763 12.5799L32.0693 11.7824L32.7483 12.8868L32.859 12.8185C32.8485 12.6292 32.8583 12.3968 32.8884 12.1213C32.9185 11.8458 33.0193 11.5594 33.1907 11.262C33.3602 10.9616 33.6561 10.6813 34.0782 10.4209C34.6273 10.0822 35.2028 9.9189 35.8047 9.931C36.4066 9.94309 36.9909 10.1352 37.5577 10.5075C38.1275 10.8779 38.6387 11.4312 39.0914 12.1675C39.544 12.9037 39.8097 13.6106 39.8882 14.288C39.965 14.9625 39.8766 15.5737 39.6231 16.1216C39.3677 16.6665 38.9655 17.1083 38.4164 17.447C38.0031 17.7019 37.6224 17.8409 37.2742 17.864C36.929 17.8853 36.6253 17.8483 36.3632 17.7531C36.101 17.6578 35.8856 17.5623 35.7168 17.4666L35.6371 17.5158L37.8595 21.1305L36.5355 21.9472ZM34.168 15.1859C34.4625 15.6649 34.79 16.042 35.1506 16.3172C35.5111 16.5923 35.8854 16.7509 36.2736 16.7928C36.66 16.8318 37.0436 16.7339 37.4244 16.499C37.82 16.255 38.0861 15.9461 38.2227 15.5723C38.3575 15.1955 38.381 14.7834 38.2931 14.336C38.2083 13.8867 38.0259 13.4344 37.7459 12.979C37.4696 12.5296 37.1535 12.1678 36.7977 11.8938C36.4449 11.618 36.0706 11.4594 35.6747 11.4182C35.2817 11.3751 34.886 11.4764 34.4875 11.7222C34.1037 11.959 33.8399 12.2583 33.696 12.6203C33.5551 12.9805 33.5258 13.3798 33.6081 13.8184C33.6905 14.257 33.8771 14.7128 34.168 15.1859Z" fill="#E2E2E2"/>
<path d="M45.7721 13.8021C45.1736 14.0426 44.5782 14.1041 43.9858 13.9866C43.3953 13.8647 42.8523 13.5721 42.3568 13.1089C41.8632 12.6413 41.4557 12.0062 41.1343 11.2037C40.813 10.4011 40.6716 9.66101 40.7102 8.98325C40.7521 8.3042 40.9473 7.71883 41.2957 7.22714C41.6442 6.73544 42.1161 6.37002 42.7114 6.13087C43.1715 5.94601 43.5725 5.8747 43.9144 5.91693C44.2582 5.95465 44.548 6.04401 44.7838 6.18501C45.0228 6.32471 45.2167 6.45446 45.3655 6.57426L45.4524 6.53935L43.9791 2.86036L45.4223 2.28058L49.3871 12.1815L47.9778 12.7477L47.5151 11.5922L47.3944 11.6407C47.3708 11.8336 47.3175 12.0645 47.2347 12.3334C47.1552 12.6011 47.0041 12.8676 46.7816 13.1328C46.5591 13.398 46.2226 13.6212 45.7721 13.8021ZM45.597 12.4414C46.0121 12.2746 46.319 12.0241 46.5176 11.6899C46.7181 11.3512 46.8137 10.9555 46.8042 10.5028C46.798 10.0489 46.6904 9.56084 46.4813 9.03872C46.2748 8.52305 46.0201 8.10157 45.7172 7.77428C45.4143 7.44699 45.0764 7.23291 44.7036 7.13202C44.3307 7.03113 43.9335 7.06536 43.512 7.23471C43.0776 7.40923 42.7608 7.66746 42.5615 8.00941C42.3623 8.35136 42.2667 8.74706 42.2749 9.1965C42.2862 9.64465 42.39 10.1137 42.5862 10.6036C42.7849 11.0999 43.0377 11.5165 43.3445 11.8535C43.6512 12.1904 43.9959 12.4168 44.3784 12.5325C44.7629 12.6437 45.1691 12.6133 45.597 12.4414Z" fill="#E2E2E2"/>
<path d="M53.2224 2.9766L53.5214 4.19033L49.1388 5.27317L48.8398 4.05944L53.2224 2.9766ZM51.9546 11.5304L49.8198 2.86235C49.7003 2.37686 49.7071 1.94777 49.8402 1.57508C49.9726 1.19903 50.1943 0.888524 50.5053 0.643571C50.8155 0.395246 51.176 0.220352 51.5866 0.118888C51.8896 0.0440382 52.155 0.00528589 52.3829 0.00263147C52.6099 -0.00339502 52.7806 0.000929717 52.8949 0.0156057L52.8429 1.32677C52.7672 1.32401 52.6705 1.32287 52.5528 1.32334C52.4343 1.32044 52.2959 1.33854 52.1377 1.37762C51.7708 1.46828 51.5306 1.62418 51.4173 1.84532C51.3073 2.06564 51.2946 2.34774 51.3793 2.69163L53.4643 11.1574L51.9546 11.5304Z" fill="#E2E2E2"/>
<path d="M72.5356 12.8432L74.4282 2.00673L75.924 2.26881L75.7008 3.5464L75.8289 3.56884C75.9464 3.42021 76.1076 3.2528 76.3126 3.06663C76.5175 2.88045 76.7826 2.733 77.1078 2.62429C77.4336 2.51216 77.8407 2.49887 78.329 2.58444C78.9642 2.69573 79.5031 2.95582 79.9455 3.36472C80.388 3.77361 80.6981 4.30561 80.8758 4.96072C81.0569 5.61643 81.0731 6.37015 80.9243 7.22187C80.7756 8.0736 80.5063 8.77907 80.1165 9.33827C79.7273 9.89405 79.2565 10.2928 78.7039 10.5344C78.152 10.7726 77.5584 10.836 76.9232 10.7247C76.4451 10.641 76.0681 10.4921 75.7923 10.278C75.5198 10.0646 75.317 9.8352 75.1839 9.58978C75.0508 9.34437 74.9528 9.12978 74.8898 8.94601L74.7976 8.92986L74.0673 13.1115L72.5356 12.8432ZM75.2409 6.21023C75.1441 6.76437 75.1395 7.26415 75.2272 7.70959C75.3148 8.15502 75.49 8.52238 75.7527 8.81165C76.016 9.09751 76.368 9.27903 76.8085 9.35621C77.2661 9.43639 77.6698 9.38198 78.0196 9.19297C78.37 9.00053 78.6604 8.70771 78.891 8.3145C79.125 7.92189 79.288 7.4622 79.38 6.93543C79.4708 6.4155 79.4738 5.93483 79.389 5.49341C79.3076 5.05259 79.1324 4.68524 78.8634 4.39135C78.5979 4.09805 78.2346 3.91102 77.7736 3.83024C77.3296 3.75246 76.9339 3.80123 76.5866 3.97656C76.2426 4.15248 75.9562 4.43192 75.7274 4.81487C75.4987 5.19782 75.3365 5.66294 75.2409 6.21023Z" fill="#E2E2E2"/>
<path d="M85.2178 12.9925C84.6115 12.7724 84.1266 12.421 83.7629 11.9381C83.4037 11.4531 83.1934 10.8725 83.1319 10.1965C83.0749 9.51833 83.1935 8.7728 83.4876 7.95988C83.7818 7.14697 84.1687 6.50068 84.6483 6.02103C85.1312 5.54256 85.6661 5.23626 86.253 5.10213C86.84 4.968 87.4349 5.01038 88.0379 5.22927C88.504 5.39847 88.8505 5.6129 89.0774 5.87254C89.3087 6.13011 89.4654 6.39013 89.5474 6.6526C89.6327 6.91626 89.691 7.14241 89.7223 7.33107L89.8103 7.36302L91.1588 3.63632L92.6207 4.167L88.9917 14.1963L87.564 13.678L87.9875 12.5076L87.8653 12.4632C87.7194 12.5913 87.5261 12.7279 87.2855 12.8733C87.0481 13.0198 86.7582 13.1177 86.4158 13.167C86.0735 13.2163 85.6741 13.1582 85.2178 12.9925ZM85.9923 11.8609C86.4128 12.0135 86.8083 12.0315 87.1787 11.9148C87.5536 11.796 87.888 11.5647 88.1821 11.2208C88.4794 10.8782 88.7237 10.4424 88.9151 9.91348C89.1041 9.39113 89.1945 8.90685 89.1864 8.46065C89.1782 8.01446 89.0686 7.62934 88.8577 7.30529C88.6467 6.98125 88.3278 6.74173 87.9008 6.58672C87.4607 6.42699 87.0527 6.40814 86.6767 6.53018C86.3006 6.65222 85.9661 6.88355 85.6733 7.22415C85.3837 7.56594 85.1491 7.98495 84.9695 8.48119C84.7876 8.98396 84.6989 9.46334 84.7036 9.91933C84.7082 10.3753 84.8147 10.7741 85.023 11.1156C85.2357 11.4551 85.5588 11.7035 85.9923 11.8609Z" fill="#E2E2E2"/>
<path d="M97.8444 9.82412L97.2619 10.9297L93.2698 8.81939L93.8523 7.7138L97.8444 9.82412ZM91.2185 15.3682L95.379 7.47247C95.612 7.03023 95.902 6.7143 96.2489 6.52466C96.5974 6.33195 96.9691 6.24771 97.364 6.27193C97.7606 6.29309 98.1459 6.40254 98.52 6.60028C98.7959 6.74615 99.0199 6.89399 99.1918 7.04379C99.3654 7.19052 99.49 7.30743 99.5656 7.39453L98.6563 8.33913C98.6016 8.28667 98.5302 8.22141 98.4419 8.14336C98.3553 8.06223 98.2399 7.98358 98.0958 7.9074C97.7616 7.73073 97.4788 7.68722 97.2473 7.77688C97.0189 7.86816 96.8221 8.07042 96.6571 8.38367L92.5937 16.0951L91.2185 15.3682Z" fill="#E2E2E2"/>
<path d="M103.367 27.6034L111.491 20.2006L112.513 21.3256L111.555 22.1984L111.643 22.2947C111.827 22.2494 112.056 22.216 112.332 22.1946C112.608 22.1733 112.908 22.2194 113.231 22.3331C113.557 22.4444 113.887 22.6837 114.221 23.051C114.655 23.5288 114.922 24.065 115.021 24.6597C115.121 25.2544 115.04 25.8651 114.78 26.4919C114.522 27.1213 114.074 27.7269 113.435 28.3088C112.797 28.8906 112.152 29.2829 111.502 29.4857C110.855 29.6861 110.239 29.7122 109.654 29.5641C109.072 29.4136 108.564 29.0995 108.13 28.6217C107.804 28.2621 107.597 27.9131 107.51 27.5747C107.425 27.2388 107.405 26.933 107.45 26.6574C107.495 26.3817 107.549 26.152 107.611 25.9681L107.548 25.8988L104.413 28.7555L103.367 27.6034ZM109.562 24.0214C109.147 24.4 108.838 24.7922 108.634 25.198C108.431 25.6038 108.345 26.0016 108.376 26.3915C108.409 26.779 108.576 27.1384 108.877 27.4698C109.189 27.814 109.542 28.0187 109.934 28.084C110.328 28.1469 110.737 28.0937 111.16 27.9245C111.585 27.7578 111.995 27.4945 112.39 27.1347C112.78 26.7795 113.076 26.4014 113.279 26.0005C113.484 25.6022 113.571 25.2043 113.538 24.807C113.508 24.4123 113.335 24.0415 113.02 23.6947C112.717 23.3608 112.374 23.1565 111.992 23.0819C111.613 23.0099 111.216 23.055 110.8 23.2172C110.385 23.3795 109.973 23.6475 109.562 24.0214Z" fill="#E2E2E2"/>
<path d="M113.211 35.417C112.865 34.872 112.695 34.2971 112.701 33.6923C112.712 33.0885 112.899 32.5001 113.263 31.927C113.631 31.3549 114.179 30.8368 114.907 30.3726C115.635 29.9085 116.336 29.633 117.008 29.5462C117.682 29.4624 118.292 29.5467 118.839 29.7992C119.386 30.0518 119.831 30.449 120.176 30.991C120.442 31.41 120.586 31.7916 120.607 32.136C120.633 32.4814 120.599 32.7832 120.504 33.0413C120.411 33.3023 120.319 33.517 120.229 33.6856L120.279 33.7647L123.618 31.6368L124.453 32.9508L115.467 38.6774L114.652 37.3942L115.701 36.7259L115.631 36.616C115.437 36.6283 115.201 36.6184 114.922 36.5864C114.645 36.5574 114.355 36.4577 114.054 36.2875C113.753 36.1173 113.472 35.8271 113.211 35.417ZM114.514 34.994C114.754 35.3719 115.057 35.6279 115.421 35.7619C115.791 35.8969 116.197 35.9181 116.639 35.8255C117.083 35.7358 117.542 35.5399 118.016 35.2379C118.484 34.9397 118.851 34.6113 119.116 34.2528C119.382 33.8944 119.53 33.5223 119.56 33.1367C119.59 32.751 119.484 32.3663 119.24 31.9825C118.989 31.587 118.677 31.3226 118.305 31.1894C117.932 31.0562 117.526 31.035 117.087 31.1258C116.649 31.2196 116.208 31.4081 115.763 31.6914C115.313 31.9785 114.951 32.3041 114.676 32.6681C114.402 33.0322 114.244 33.4132 114.201 33.8111C114.162 34.21 114.267 34.6043 114.514 34.994Z" fill="#E2E2E2"/>
<path d="M125.109 40.5835L123.974 41.1046L122.093 36.9949L123.227 36.4738L125.109 40.5835ZM116.482 40.9356L124.585 37.2141C125.038 37.0057 125.461 36.9321 125.851 36.9935C126.245 37.0534 126.591 37.2134 126.889 37.4737C127.19 37.7325 127.429 38.0544 127.606 38.4395C127.736 38.7236 127.823 38.9775 127.869 39.2012C127.917 39.4235 127.945 39.5922 127.952 39.7075L126.656 39.9015C126.645 39.8265 126.628 39.7311 126.605 39.6154C126.586 39.4982 126.542 39.3654 126.474 39.2171C126.317 38.873 126.119 38.6659 125.881 38.5957C125.644 38.5287 125.365 38.569 125.044 38.7166L117.131 42.3513L116.482 40.9356Z" fill="#E2E2E2"/>
</svg>
