<svg width="47" height="35" viewBox="0 0 47 35" fill="none" xmlns="http://www.w3.org/2000/svg">
<path fill-rule="evenodd" clip-rule="evenodd" d="M23.3345 17.5196C27.4254 17.5196 30.6072 13.2767 30.6072 8.88448V7.50846C30.6072 3.11641 27.4254 0 23.3345 0C19.2434 0 16.0617 3.11625 16.0617 7.50846V8.88448C16.0617 13.2767 19.2434 17.5196 23.3345 17.5196ZM8.76377 18.9401C9.93348 18.9401 13.1345 17.4225 13.1345 14.2735V11.9401C13.1345 8.79094 10.8253 7.27331 8.76377 7.27331C6.77062 7.27331 4.39323 8.79094 4.39323 11.9401V14.2735C4.39323 17.4225 7.6563 18.9401 8.76377 18.9401ZM34.9511 24.7747C34.9489 24.7519 34.942 24.7302 34.9397 24.7076C34.9055 24.4328 34.853 24.1641 34.7802 23.9009C34.7802 23.8985 34.7802 23.8964 34.7779 23.8941C34.6252 23.3346 34.3676 22.7957 33.9827 22.2648V22.2625C33.3514 21.3888 32.3991 20.4975 30.8518 19.6285C30.0337 19.1691 29.6736 18.9586 29.1679 18.9586C28.3636 18.9586 27.6617 19.584 26.4793 20.6698H26.4768L25.4013 21.6586C25.3625 21.6953 24.2029 23.3335 23.3347 23.3335C22.4664 23.3335 21.3067 21.6951 21.2679 21.6586L20.1924 20.6698H20.1901C19.0076 19.584 18.3058 18.9586 17.5014 18.9586C16.9956 18.9586 16.5442 19.1691 15.8176 19.6285C14.3174 20.5754 13.3176 21.3876 12.6889 22.2601L12.6865 22.2612C12.6842 22.2635 12.6842 22.2671 12.6821 22.2691C12.3014 22.7956 12.0462 23.331 11.8937 23.8871C11.8916 23.8916 11.889 23.8973 11.8872 23.9029C11.8163 24.1641 11.7638 24.4292 11.7298 24.7015C11.7275 24.7268 11.7206 24.7506 11.7182 24.7757C11.6863 25.0651 11.6682 25.3602 11.6682 25.6666C11.6682 25.7006 11.6675 32.0537 11.6682 32.0834C11.6682 34.1569 12.4497 35 14.5848 35H32.0849C34.2384 35 35.0015 34.2023 35.0015 32.0834C35.0022 32.0537 35.0013 25.7006 35.0013 25.6666C35.0012 25.3604 34.9829 25.0653 34.9511 24.7747ZM37.9308 18.9401C39.1004 18.9401 42.3017 17.4225 42.3017 14.2735V11.9401C42.3017 8.79094 39.9926 7.27331 37.9308 7.27331C35.9375 7.27331 33.5601 8.79094 33.5601 11.9401V14.2735C33.5601 17.4225 36.8232 18.9401 37.9308 18.9401ZM3.31884 22.0984C0.604774 23.6434 0.00101396 26.1067 0.00101396 27.7086C0.00101396 27.7335 -0.00126745 30.6026 0.00101396 30.6252C0.00101396 32.7421 0.712001 33.542 2.91764 33.542H8.75105C8.75105 33.542 8.75105 27.3441 8.75105 24.7918L7.29274 23.3335C5.74985 21.9731 4.44912 21.4559 3.31884 22.0984ZM8.75105 24.7918C8.75105 24.0992 8.78316 24.8195 8.75105 24.7918V24.7918ZM46.6682 27.7086C46.6682 26.1066 46.0642 23.6433 43.3503 22.0984C42.2201 21.4559 40.9193 21.9731 39.3764 23.3337L37.9181 24.792C37.9181 27.3441 37.9181 33.5422 37.9181 33.5422H43.7515C45.9572 33.5422 46.6682 32.7422 46.6682 30.6254C46.6705 30.6026 46.6682 27.7337 46.6682 27.7086ZM37.918 24.7918C37.886 24.8195 37.918 24.0992 37.918 24.7918V24.7918Z" fill="#E9D3AF"/>
</svg>
