<svg width="25" height="26" viewBox="0 0 25 26" fill="none" xmlns="http://www.w3.org/2000/svg">
<path d="M23.7881 19.0513L20.1584 16.5151C19.6838 16.1841 19.129 16.0095 18.5537 16.0095C17.6389 16.0095 16.7801 16.4582 16.2571 17.2089L15.4145 18.4166C14.0024 17.4694 12.4266 16.1468 10.9245 14.6448C9.4226 13.1428 8.10046 11.5669 7.15365 10.1546L8.36062 9.3119C8.97587 8.88345 9.38676 8.2416 9.51725 7.50508C9.64747 6.76911 9.48333 6.02548 9.05438 5.40989L6.51897 1.77984C5.9888 1.02143 5.13337 0.568359 4.23033 0.568359C3.91737 0.568359 3.61043 0.623626 3.31826 0.731422C2.98642 0.853992 2.6773 1.00447 2.37419 1.19489L1.87301 1.54783C1.74772 1.64523 1.63118 1.75193 1.51957 1.86356C0.908149 2.47477 0.474274 3.24849 0.229433 4.1634C-0.815313 8.08018 1.77289 14.003 6.66971 18.9003C10.7819 23.013 15.7223 25.5678 19.5623 25.5684C20.2199 25.5684 20.8401 25.4918 21.4053 25.3407C22.3201 25.0961 23.0938 24.6622 23.7054 24.0505C23.8165 23.9394 23.9227 23.8228 24.0365 23.6756L24.3896 23.1717C24.5623 22.8959 24.7124 22.5867 24.8366 22.2524C25.2637 21.0978 24.8325 19.7813 23.7881 19.0513Z" fill="white"/>
</svg>
