<svg width="40" height="35" viewBox="0 0 40 35" fill="none" xmlns="http://www.w3.org/2000/svg">
<path d="M33.2098 13.125H25.5028L18.4155 0.550977C18.321 0.383569 18.1845 0.244446 18.0199 0.147692C17.8553 0.050938 17.6685 -1.20946e-05 17.4782 2.15354e-09L13.0613 2.15354e-09C12.3445 2.15354e-09 11.8272 0.695215 12.0241 1.39385L15.3304 13.125H8.39419L5.48106 9.1875C5.27741 8.91201 4.9571 8.75 4.6179 8.75H1.92123C1.21925 8.75 0.704053 9.41856 0.874661 10.109L2.9995 17.5L0.874661 24.891C0.704053 25.5814 1.21925 26.25 1.92123 26.25H4.6179C4.95777 26.25 5.27741 26.088 5.48106 25.8125L8.39419 21.875H15.3304L12.0241 33.6055C11.8272 34.3041 12.3445 35 13.0613 35H17.4782C17.8653 35 18.2226 34.7895 18.4148 34.449L25.5028 21.875H33.2098C35.5936 21.875 39.6834 19.9165 39.6834 17.5C39.6834 15.0835 35.5936 13.125 33.2098 13.125Z" fill="#E9D3AF"/>
</svg>
