<svg width="42" height="33" viewBox="0 0 42 33" fill="none" xmlns="http://www.w3.org/2000/svg">
<path d="M8 14.7077C11.3137 14.7077 14 12.0225 14 8.71016C14 5.39782 11.3137 2.71265 8 2.71265C4.68629 2.71265 2 5.39782 2 8.71016C2 12.0225 4.68629 14.7077 8 14.7077Z" fill="#E9D3AF"/>
<path opacity="0.25" d="M8 16.7067C12.4183 16.7067 16 13.1265 16 8.71006C16 4.29362 12.4183 0.713379 8 0.713379C3.58172 0.713379 0 4.29362 0 8.71006C0 13.1265 3.58172 16.7067 8 16.7067Z" fill="#E9D3AF"/>
<path d="M38.4894 13.4592L31.8868 6.07963C30.5778 4.74778 28.4537 4.74778 27.1365 6.08801C26.7166 6.5152 26.4367 7.02616 26.2885 7.56225C24.9713 6.54033 23.0778 6.64085 21.8676 7.87218C21.4477 8.29938 21.1678 8.81034 21.0196 9.34643C19.7024 8.32451 17.8088 8.42502 16.5986 9.65636C16.187 10.0752 15.9071 10.5694 15.7589 11.0971L12.6305 7.93919C11.3215 6.60734 9.19742 6.60734 7.88019 7.94757C6.57119 9.27942 6.57119 11.4405 7.88019 12.7724L19.8341 24.9433L12.7457 26.0741C10.8275 26.3505 9.38677 28.051 9.38677 30.0194C9.38677 31.4937 10.5723 32.6999 12.0212 32.6999H28.5855C31.1623 32.6999 33.5909 31.6779 35.4186 29.8184L38.1848 27.0039C40.0042 25.1527 41.0086 22.6817 41.0086 20.0599C41.0004 17.6223 40.103 15.2769 38.4894 13.4592ZM36.9252 25.7474L34.159 28.5619C32.6689 30.078 30.6848 30.9157 28.569 30.9157H12.0212C11.5355 30.9157 11.1403 30.5136 11.1403 30.0194C11.1403 28.9305 11.9389 28.0007 13.0092 27.8415L21.8182 26.4343C22.1475 26.384 22.4109 26.1495 22.518 25.8312C22.6167 25.5129 22.5344 25.1611 22.3039 24.9266L9.12333 11.5159C8.49764 10.8793 8.49764 9.84901 9.13156 9.20403C9.4444 8.88573 9.85604 8.72657 10.2594 8.72657C10.6711 8.72657 11.0745 8.88573 11.3873 9.20403L20.1716 18.1417C20.5174 18.4935 21.069 18.4935 21.4148 18.1417C21.5877 17.9658 21.67 17.7396 21.67 17.5051C21.67 17.2705 21.5877 17.0444 21.4148 16.8684L17.8253 13.2163C17.1996 12.5797 17.1996 11.5494 17.8335 10.9044C18.4592 10.2678 19.4718 10.2678 20.0975 10.9044L23.687 14.5566C24.0328 14.9084 24.5844 14.9084 24.9301 14.5566C25.103 14.3807 25.1853 14.1545 25.1853 13.9199C25.1853 13.6854 25.103 13.4592 24.9301 13.2833L23.0942 11.4154C22.4686 10.7788 22.4686 9.7485 23.1025 9.10351C23.7282 8.46691 24.7408 8.46691 25.3665 9.10351L27.2106 10.9798C27.5564 11.3149 28.0997 11.3065 28.4373 10.9631C28.783 10.6113 28.783 10.05 28.4373 9.69824L28.3632 9.62285C28.0586 9.31292 27.8939 8.90248 27.8939 8.47528C27.8939 8.04809 28.0586 7.63764 28.3714 7.31934C28.9971 6.68273 30.0097 6.69111 30.6025 7.28583L37.1804 14.6403C38.5059 16.1229 39.2304 18.0411 39.2304 20.0431C39.2386 22.2126 38.4235 24.2313 36.9252 25.7474Z" fill="#02023D"/>
</svg>
