<svg width="36" height="36" viewBox="0 0 36 36" fill="none" xmlns="http://www.w3.org/2000/svg">
<path d="M35.0589 20.5216C35.0589 22.9422 33.5874 24.904 31.7721 24.904C29.5515 24.904 29.6001 22.7128 27.9622 22.7128C27.0405 22.7128 26.2942 23.4592 26.2942 24.3836V33.6687C26.2942 34.8786 25.3129 35.8599 24.103 35.8599H19.1975C18.2758 35.8599 17.5294 35.1135 17.5294 34.1891C17.5294 32.5115 19.7206 32.6005 19.7206 30.3819C19.7206 28.5667 17.7588 27.0951 15.3383 27.0951C12.9177 27.0951 10.9559 28.5667 10.9559 30.3819C10.9559 32.6025 13.1471 32.5539 13.1471 34.1918C13.1471 35.1135 12.4007 35.8599 11.4763 35.8599H2.19118C0.981238 35.8599 0 34.8786 0 33.6687V24.3836C0 23.4592 0.747056 22.7128 1.66804 22.7128C3.29019 22.7128 3.25938 24.904 5.47795 24.904C7.29252 24.904 8.76472 22.9387 8.76472 20.5216C8.76472 18.1045 7.29252 16.0776 5.47795 16.0776C3.25733 16.0776 3.30594 18.2688 1.66804 18.2688C0.747056 18.2688 0 17.584 0 16.6596V11.7541C0 10.5442 0.981238 9.62459 2.19118 9.62459H11.4763C12.4007 9.50407 13.1471 8.81933 13.1471 7.89492C13.1471 6.27276 10.9559 6.30358 10.9559 4.08501C10.9559 2.26975 12.9177 0.859863 15.3383 0.859863C17.7588 0.859863 19.7206 2.33138 19.7206 4.08501C19.7206 6.30563 17.5294 6.25701 17.5294 7.89492C17.5294 8.8159 18.2765 9.56296 19.1975 9.56296H24.103C25.3129 9.56296 26.2942 10.5442 26.2942 11.6925V16.598C26.2942 17.519 27.0412 18.2661 27.9622 18.2661C29.5844 18.2661 29.5535 16.0749 31.7721 16.0749C33.5867 16.0776 35.0589 18.1045 35.0589 20.5216Z" fill="#E9D3AF"/>
</svg>
