<svg width="379" height="322" viewBox="0 0 379 322" fill="none" xmlns="http://www.w3.org/2000/svg">
<path d="M151.138 322V257.353C131.065 256.218 115.878 252.481 105.576 246.14C95.2481 239.799 88.0087 229.514 83.8322 215.285C79.6556 201.057 77.5547 180.693 77.5547 154.221H151.138V0H0.200012V146.617C0.200012 207.191 12.9575 251.553 38.4471 279.727C63.9619 307.9 101.526 322 151.138 322ZM379 322V257.353C358.927 256.218 343.74 252.635 333.438 246.578C323.11 240.52 315.668 230.236 311.062 215.724C306.455 201.211 304.177 180.719 304.177 154.247H379V0H227.227V146.617C227.227 207.191 239.908 251.553 265.271 279.727C290.634 307.9 328.552 322 379 322Z" fill="#F6F6F6"/>
</svg>
