<svg width="52" height="35" viewBox="0 0 52 35" fill="none" xmlns="http://www.w3.org/2000/svg">
<path d="M51.6551 30.8684L39.0865 1.70169C38.6396 0.664453 37.6659 0 36.5941 0H27.8197L28.04 2.11094C28.085 2.54115 27.7514 2.91667 27.3243 2.91667H24.7025C24.2754 2.91667 23.9419 2.54115 23.9868 2.11094L24.2071 0H15.4327C14.3601 0 13.3863 0.664453 12.9395 1.70169L0.370812 30.8684C-0.460864 32.7997 0.866222 35 2.86494 35H20.563L21.49 26.0969C21.5673 25.3549 22.1841 24.7917 22.9205 24.7917H29.1063C29.8427 24.7917 30.4595 25.3549 30.5368 26.0969L31.4638 35H49.1619C51.1606 35 52.4877 32.7997 51.6551 30.8684ZM23.5319 6.48594C23.5505 6.30674 23.634 6.14089 23.7661 6.02038C23.8983 5.89987 24.0698 5.83324 24.2476 5.83333H27.7802C28.1479 5.83333 28.4572 6.11497 28.4958 6.48594L28.9094 10.4581C28.9769 11.1043 28.477 11.6667 27.8368 11.6667H24.1918C23.5507 11.6667 23.0517 11.1043 23.1192 10.4581L23.5319 6.48594ZM28.4985 21.875H23.5274C22.6732 21.875 22.007 21.1249 22.0969 20.2635L22.5527 15.8885C22.6301 15.1466 23.2468 14.5833 23.9832 14.5833H28.0427C28.7791 14.5833 29.3959 15.1466 29.4732 15.8885L29.929 20.2635C30.0189 21.1249 29.3527 21.875 28.4985 21.875Z" fill="#E9D3AF"/>
</svg>
