<svg width="35" height="35" viewBox="0 0 35 35" fill="none" xmlns="http://www.w3.org/2000/svg">
<path fill-rule="evenodd" clip-rule="evenodd" d="M17.3817 35C7.84709 35 0.118652 27.1655 0.118652 17.5C0.118652 7.83453 7.84709 0 17.3817 0C26.9163 0 34.6447 7.83453 34.6447 17.5C34.6447 27.1655 26.9163 35 17.3817 35ZM11.4475 16.6666V18.6441H13.3508V21.4966H11.4475V23.3614H13.3508V27.3438H15.4957V23.3614H19.8114V21.4966H15.4957V18.6441H18.2027C19.0274 18.6511 19.8488 18.5369 20.6411 18.305C21.3921 18.0786 22.0438 17.7362 22.5983 17.2736C23.1529 16.8131 23.591 16.2345 23.9125 15.5367C24.234 14.84 24.3948 14.0208 24.3948 13.0791C24.3948 12.1384 24.2437 11.3291 23.9395 10.6509C23.6352 9.97281 23.2155 9.41172 22.6793 8.96984C22.143 8.52797 21.5 8.19766 20.749 7.98109C19.9371 7.75638 19.0983 7.64705 18.2567 7.65625H13.3508V16.6666H11.4475ZM18.2556 16.6666H15.4957V9.63375H18.2567C19.4888 9.63375 20.4588 9.90719 21.1644 10.453C21.8701 10.9987 22.224 11.8748 22.224 13.0791C22.224 14.2844 21.8701 15.1834 21.1644 15.7773C20.4588 16.3702 19.4888 16.6666 18.2567 16.6666H18.2556Z" fill="#E9D3AF"/>
</svg>
