<svg width="23" height="30" viewBox="0 0 23 30" fill="none" xmlns="http://www.w3.org/2000/svg">
<path d="M13.6962 18.4803C16.1637 18.4803 18.5302 17.5068 20.275 15.774C22.0198 14.0411 23 11.6908 23 9.24017C23 6.78953 22.0198 4.43925 20.275 2.70638C18.5302 0.973516 16.1637 0 13.6962 0H0V2.79476H3.51248V15.6856H0V18.4803H3.51248V22.3144H0V25.1092H3.51248V30H6.32647V25.1092H14.7735V22.3144H6.32647V18.4803H13.6962ZM6.32647 2.79476H13.6962C14.5485 2.79476 15.3924 2.96148 16.1798 3.28539C16.9671 3.6093 17.6826 4.08407 18.2852 4.68258C18.8878 5.28109 19.3659 5.99163 19.692 6.77362C20.0181 7.55562 20.186 8.39375 20.186 9.24017C20.186 10.0866 20.0181 10.9247 19.692 11.7067C19.3659 12.4887 18.8878 13.1993 18.2852 13.7978C17.6826 14.3963 16.9671 14.871 16.1798 15.195C15.3924 15.5189 14.5485 15.6856 13.6962 15.6856H6.32647V2.79476Z" fill="#02023D"/>
</svg>
