<svg width="36" height="35" viewBox="0 0 36 35" fill="none" xmlns="http://www.w3.org/2000/svg">
<path fill-rule="evenodd" clip-rule="evenodd" d="M17.9818 7.5C15.9349 7.5 14.2826 5.825 14.2826 3.75C14.2826 1.675 15.9349 0 17.9818 0C20.0287 0 21.681 1.675 21.681 3.75C21.681 5.825 20.0287 7.5 17.9818 7.5ZM35.2448 22.5C35.2448 25.275 33.0499 27.5 30.3125 27.5H27.8464C25.1089 27.5 22.9141 25.275 22.9141 22.5L27.8464 12.5H25.3802C24.0238 12.5 22.9141 11.375 22.9141 10H20.4479V30C21.4837 30 22.9141 31.125 22.9141 32.5H25.3802C26.416 32.5 27.8464 33.625 27.8464 35H8.11719C8.11719 33.625 9.54755 32.5 10.5833 32.5H13.0495C13.0495 31.125 14.4798 30 15.5156 30H15.5896L15.5156 10H13.0495C13.0495 11.375 11.9397 12.5 10.5833 12.5H8.11719L13.0495 22.5C13.0495 25.275 10.8546 27.5 8.11719 27.5H5.65104C2.91362 27.5 0.71875 25.275 0.71875 22.5L5.65104 12.5H3.1849V10H10.5833C10.5833 8.625 11.6931 7.5 13.0495 7.5H22.9141C24.2704 7.5 25.3802 8.625 25.3802 10H32.7786V12.5H30.3125L35.2448 22.5ZM6.88411 15L3.1849 22.5H10.5833L6.88411 15ZM32.7786 22.5L29.0794 15L25.3802 22.5H32.7786Z" fill="#E9D3AF"/>
</svg>
